<?xml version="1.0" encoding="utf-8"?>
<!-- Generator: Adobe Illustrator 19.2.0, SVG Export Plug-In . SVG Version: 6.00 Build 0)  -->
<svg version="1.1" id="Layer_1" xmlns="http://www.w3.org/2000/svg" xmlns:xlink="http://www.w3.org/1999/xlink" x="0px" y="0px"
	 viewBox="0 0 500 500" style="enable-background:new 0 0 500 500;" xml:space="preserve">
<style type="text/css">
	.st0{fill:#F4F4F4;}
	.st1{fill:#D3D3D3;}
	.st2{fill:#E2E2E2;}
	.st3{fill:#4F4F4F;}
	.st4{fill:#848484;}
	.st5{fill:#9B9B9B;}
	.st6{fill:#FFFFFF;}
	.st7{fill:#E8E8E8;}
	.st8{fill:#939393;}
</style>
<g>
	<g>
		<circle class="st0" cx="-744.4" cy="221.8" r="207.5"/>
	</g>
	<g>
		<path class="st1" d="M-786.9,83.6h-8.3c-1.5,0-2.7-1.2-2.7-2.7V38c0-1.5,1.2-2.7,2.7-2.7h8.3c1.5,0,2.7,1.2,2.7,2.7v42.8
			C-784.2,82.3-785.4,83.6-786.9,83.6z"/>
	</g>
	<g>
		<path class="st1" d="M-815.2,63.6v-8.3c0-1.5,1.2-2.7,2.7-2.7h42.8c1.5,0,2.7,1.2,2.7,2.7v8.3c0,1.5-1.2,2.7-2.7,2.7h-42.8
			C-813.9,66.3-815.2,65.1-815.2,63.6z"/>
	</g>
	<g>
		
			<ellipse transform="matrix(0.7071 -0.7071 0.7071 0.7071 -379.6012 -474.4326)" class="st2" cx="-762.5" cy="221" rx="13" ry="13"/>
	</g>
	<g>
		<path class="st3" d="M-540.9,383.7c-8.4-31.4-41.7-38.6-59.6-42.5c-3.7-0.8-7.3-1.6-8.8-2.3c-10.5-4.6-17.6-11.1-21.2-19.5
			c32,1.7,46.7-11.3,47.4-11.9c1.2-1.1,1.8-2.7,1.6-4.3c-0.2-1.6-1.1-3.1-2.5-3.9c-18.3-10.4-18.3-47.4-18.3-61.3
			c0-40.5-27.5-72.7-62.5-73.2c-0.1,0-0.9,0-1.1,0c-35.6,0.2-64.6,32.4-64.6,71.8c0,13.9,0,50.9-18.3,61.3c-1.5,0.8-2.4,2.4-2.6,4.1
			c-0.1,1.7,0.6,3.3,2,4.4c0.9,0.7,21.2,16.2,46.6,12.8c-3.7,7.9-10.6,14-20.6,18.4c-1.6,0.7-5.1,1.5-8.6,2.4
			c-18,4.3-51.4,12.2-59.9,43.8c-0.7,2.7,0.9,5.5,3.6,6.2c2.8,0.7,5.5-0.9,6.2-3.6c6.9-25.7,35.3-32.5,52.4-36.6
			c4.4-1,7.9-1.9,10.3-2.9c20.4-8.9,27.1-23.2,29.1-33.7c0.3-1.8-0.3-3.6-1.6-4.8c-1.3-1.2-3.2-1.6-4.9-1.1
			c-16.9,5.3-32.8-1.3-40.5-5.5c17-16.4,17-50.5,17-65.3c0-33.8,24.6-61.4,54.7-61.6l0.4,0c0.2,0,0.4,0,0.4,0
			c29.8,0.4,52.4,27.5,52.4,63c0,14.9,0,49,17,65.4c-7,3.5-20.4,7.8-41.4,5.2c-1.6-0.2-3.2,0.4-4.4,1.6c-1.1,1.2-1.6,2.8-1.3,4.4
			c2,10.5,8.7,24.8,29.1,33.7c2.5,1.1,6.4,1.9,10.9,2.9c16.8,3.6,45,9.7,51.8,35.1c0.6,2.2,2.6,3.8,4.9,3.8c0.4,0,0.9-0.1,1.3-0.2
			C-541.8,389.2-540.2,386.4-540.9,383.7z"/>
	</g>
	<g>
		<path class="st4" d="M-621.3,36h-80.3c-7.8,0-17.5,6.4-17.5,14.2v56.6c0,7.8,8,9.4,18,9.4v28.3l42-25.7h37.8
			c7.8,0,14.3-9,14.3-16.8V50.2C-607,42.4-613.4,36-621.3,36z"/>
	</g>
	<g>
		<path class="st5" d="M-795.4,126h51.1c5,0,10.3,4.2,10.3,9.2v36c0,5-4,6-10,6v18l-27.4-16.2h-24c-5,0-7.6-5.8-7.6-10.8v-33
			C-803,130.2-800.4,126-795.4,126z"/>
	</g>
	<g>
		<path class="st1" d="M-546.8,167.7h-4.3c-0.8,0-1.4-0.6-1.4-1.4v-22c0-0.8,0.6-1.4,1.4-1.4h4.3c0.8,0,1.4,0.6,1.4,1.4v22
			C-545.4,167.1-546,167.7-546.8,167.7z"/>
	</g>
	<g>
		<path class="st1" d="M-561.3,157.4v-4.3c0-0.8,0.6-1.4,1.4-1.4h22c0.8,0,1.4,0.6,1.4,1.4v4.3c0,0.8-0.6,1.4-1.4,1.4h-22
			C-560.7,158.9-561.3,158.2-561.3,157.4z"/>
	</g>
	<g>
		<path class="st3" d="M-783.7,243.6c-6-22.4-29.4-27.5-42.1-30.2c-2.6-0.6-5-1.1-6-1.5c-7.8-3.4-12.8-8.4-14.8-14.9
			c8-7.3,14.8-18.2,18.7-30.2c4.4-5.8,6.8-11.8,6.8-17c0-3.5-1.1-6.5-3.1-8.9c-1.5-27.7-21.8-49.5-46.4-49.9l-0.8,0
			c-24.1,0.1-44.4,21.3-46.6,48.4c-3,2.6-4.6,6.1-4.6,10.4c0,6.1,3.3,13.3,9.1,19.9c3.8,10.3,9.7,19.6,16.6,26.2
			c-2,6.6-7,11.6-14.9,15c-1,0.4-3.5,1-5.8,1.6c-12.7,3-36.3,8.6-42.3,31.1c-0.6,2.4,0.8,4.9,3.2,5.6l0,0c2.4,0.6,4.9-0.9,5.6-3.2
			c4.6-17.2,24-21.9,35.6-24.6c3.1-0.7,5.6-1.3,7.3-2.1c14.6-6.3,19.4-16.6,20.8-24.1c0.3-1.6-0.3-3.3-1.5-4.3
			c-6.9-5.9-12.7-14.9-16.3-25.1c-0.2-0.6-0.5-1.1-0.9-1.6c-4.6-5-7.3-10.4-7.3-14.4c0-1.9,0.6-3,2.3-4c1.3-0.8,2.2-2.2,2.2-3.7
			c1-23.4,17.6-41.8,37.9-41.9c0.2,0,0.4,0,0.4,0c20.4,0.3,36.8,19.1,37.4,42.8c0,1.3,0.6,2.5,1.6,3.4c1,0.9,1.4,1.9,1.4,3.4
			c0,3.3-1.9,7.7-5.3,12c-0.3,0.4-0.6,0.9-0.8,1.4c-3.7,11.8-10.4,22.2-18.3,28.6c-1.3,1.1-1.9,2.8-1.6,4.4
			c1.4,7.5,6.2,17.8,20.8,24.1c1.8,0.8,4.6,1.4,7.7,2.1c11.4,2.5,30.6,6.6,35.1,23.6c0.5,2,2.4,3.4,4.4,3.4c0.4,0,0.8,0,1.2-0.2
			C-784.5,248.5-783,246-783.7,243.6z"/>
	</g>
	<g>
		<path class="st1" d="M-871.4,345.9c-5.9,0-11.7-2.2-16.2-6.7c-8.9-8.9-8.9-23.4,0-32.4c8.9-8.9,23.4-8.9,32.4,0
			c8.9,8.9,8.9,23.4,0,32.4C-859.7,343.7-865.6,345.9-871.4,345.9z M-871.4,307.4c-4,0-8,1.5-11.1,4.6c-6.1,6.1-6.1,16,0,22.1
			c6.1,6.1,16,6.1,22.1,0c6.1-6.1,6.1-16,0-22.1C-863.4,308.9-867.4,307.4-871.4,307.4z"/>
	</g>
	<g>
		<path class="st1" d="M-811.7,310.1c-4.4,0-8.8-1.7-12.2-5c-3.2-3.2-5-7.6-5-12.2c0-4.6,1.8-8.9,5-12.2c6.7-6.7,17.6-6.7,24.3,0
			c6.7,6.7,6.7,17.6,0,24.3l0,0C-802.9,308.4-807.3,310.1-811.7,310.1z M-811.7,283c-2.5,0-5.1,1-7,2.9c-1.9,1.9-2.9,4.4-2.9,7
			c0,2.7,1,5.2,2.9,7c3.9,3.9,10.2,3.9,14.1,0c3.9-3.9,3.9-10.2,0-14.1C-806.6,284-809.2,283-811.7,283z"/>
	</g>
	<g>
		<path class="st1" d="M-811.7,367.8c-4.4,0-8.8-1.7-12.2-5c-3.2-3.2-5-7.6-5-12.2c0-4.6,1.8-8.9,5-12.2c6.7-6.7,17.6-6.7,24.3,0
			c6.7,6.7,6.7,17.6,0,24.3l0,0C-802.9,366.2-807.3,367.8-811.7,367.8z M-811.7,340.7c-2.5,0-5.1,1-7,2.9c-1.9,1.9-2.9,4.4-2.9,7
			c0,2.7,1,5.2,2.9,7c3.9,3.9,10.2,3.9,14.1,0c3.9-3.9,3.9-10.2,0-14.1C-806.6,341.7-809.2,340.7-811.7,340.7z"/>
	</g>
	<g>
		<path class="st1" d="M-869.6,335.8h-4.3c-0.8,0-1.4-0.6-1.4-1.4v-22c0-0.8,0.6-1.4,1.4-1.4h4.3c0.8,0,1.4,0.6,1.4,1.4v22
			C-868.2,335.2-868.8,335.8-869.6,335.8z"/>
	</g>
	<g>
		<path class="st1" d="M-884.2,325.6v-4.3c0-0.8,0.6-1.4,1.4-1.4h22c0.8,0,1.4,0.6,1.4,1.4v4.3c0,0.8-0.6,1.4-1.4,1.4h-22
			C-883.5,327-884.2,326.3-884.2,325.6z"/>
	</g>
	<g>
		
			<rect x="-855" y="302.5" transform="matrix(0.8931 -0.4499 0.4499 0.8931 -227.434 -344.6148)" class="st1" width="32.6" height="7.2"/>
	</g>
	<g>
		
			<rect x="-842.3" y="322.5" transform="matrix(0.45 -0.893 0.893 0.45 -763.8069 -562.657)" class="st1" width="7.2" height="32.6"/>
	</g>
	<g>
		<path class="st2" d="M-726.9,390.2L-726.9,390.2c-1.4,1.4-3.6,1.4-5,0l-3.7-3.7c-1.4-1.4-1.4-3.6,0-5l0,0c1.4-1.4,3.6-1.4,5,0
			l3.7,3.7C-725.5,386.6-725.5,388.8-726.9,390.2z"/>
	</g>
	<g>
		<path class="st2" d="M-726.7,397.3L-726.7,397.3c1.4,1.4,1.4,3.6,0,5l-3.7,3.7c-1.4,1.4-3.6,1.4-5,0l0,0c-1.4-1.4-1.4-3.6,0-5
			l3.7-3.7C-730.3,395.9-728.1,395.9-726.7,397.3z"/>
	</g>
	<g>
		<path class="st2" d="M-719.4,397.7L-719.4,397.7c1.4-1.4,3.6-1.4,5,0l3.7,3.7c1.4,1.4,1.4,3.6,0,5l0,0c-1.4,1.4-3.6,1.4-5,0
			l-3.7-3.7C-720.8,401.3-720.8,399.1-719.4,397.7z"/>
	</g>
	<g>
		<path class="st2" d="M-719.6,390.2L-719.6,390.2c-1.4-1.4-1.4-3.6,0-5l3.7-3.7c1.4-1.4,3.6-1.4,5,0l0,0c1.4,1.4,1.4,3.6,0,5
			l-3.7,3.7C-716,391.6-718.2,391.6-719.6,390.2z"/>
	</g>
	<g>
		
			<ellipse transform="matrix(0.7071 -0.7071 0.7071 0.7071 -286.3385 -397.4093)" class="st2" cx="-622.9" cy="146.9" rx="11.3" ry="11.3"/>
	</g>
	<g>
		
			<ellipse transform="matrix(0.7071 -0.7071 0.7071 0.7071 -321.3023 -333.0383)" class="st2" cx="-562.7" cy="221.3" rx="8.3" ry="8.3"/>
	</g>
	<g>
		<path class="st6" d="M-626.9,235.9c-1.8,0-3.4-1.4-3.6-3.3c-1.4-14.9-6.1-25.3-13.8-31.1c-8.6-6.4-18.2-4.7-18.3-4.6
			c-2,0.4-3.9-0.9-4.2-2.9c-0.4-2,0.9-3.9,2.9-4.2c0.5-0.1,12.8-2.4,24,5.9c9.4,7,15,19.2,16.7,36.2c0.2,2-1.3,3.8-3.2,3.9
			C-626.7,235.9-626.8,235.9-626.9,235.9z"/>
	</g>
	<g>
		<circle class="st6" cx="-751.5" cy="33.3" r="4.2"/>
	</g>
	<g>
		<path class="st6" d="M-859.2,70.9L-859.2,70.9c-0.7,0.7-2,0.7-2.7,0l-2-2c-0.7-0.7-0.7-2,0-2.7v0c0.7-0.7,2-0.7,2.7,0l2,2
			C-858.4,69-858.4,70.2-859.2,70.9z"/>
	</g>
	<g>
		<path class="st6" d="M-859,74.8L-859,74.8c0.7,0.7,0.7,2,0,2.7l-2,2c-0.7,0.7-2,0.7-2.7,0l0,0c-0.7-0.7-0.7-2,0-2.7l2-2
			C-861,74-859.8,74-859,74.8z"/>
	</g>
	<g>
		<path class="st6" d="M-855.1,75L-855.1,75c0.7-0.7,2-0.7,2.7,0l2,2c0.7,0.7,0.7,2,0,2.7l0,0c-0.7,0.7-2,0.7-2.7,0l-2-2
			C-855.8,77-855.8,75.7-855.1,75z"/>
	</g>
	<g>
		<path class="st6" d="M-855.2,70.9L-855.2,70.9c-0.7-0.7-0.7-2,0-2.7l2-2c0.7-0.7,2-0.7,2.7,0v0c0.7,0.7,0.7,2,0,2.7l-2,2
			C-853.3,71.7-854.5,71.7-855.2,70.9z"/>
	</g>
	<g>
		<path class="st6" d="M-933,246c-0.6,0-1.1-0.1-1.7-0.4c-1.8-0.9-2.4-3.1-1.5-4.9c0.3-0.5,6.8-12.4,32.1-13.2
			c2-0.7,12.6-4.7,18-16.2c0.9-1.8,3-2.6,4.8-1.7c1.8,0.9,2.6,3,1.7,4.8c-7.5,15.7-22.4,19.9-23,20.1c-0.3,0.1-0.6,0.1-0.9,0.1
			c-21.1,0.6-26.3,9.3-26.4,9.4C-930.5,245.3-931.7,246-933,246z"/>
	</g>
	<g>
		<path class="st7" d="M-845.2,262h-31.7c-2,0-3.6-1.6-3.6-3.6s1.6-3.6,3.6-3.6h31.7c2,0,3.6,1.6,3.6,3.6S-843.2,262-845.2,262z"/>
	</g>
	<g>
		<path class="st7" d="M-880.6,272.3h-8.8c-2,0-3.6-1.6-3.6-3.6s1.6-3.6,3.6-3.6h8.8c2,0,3.6,1.6,3.6,3.6S-878.6,272.3-880.6,272.3z
			"/>
	</g>
	<g>
		<path class="st7" d="M-735.7,93.8h-16c-2,0-3.6-1.6-3.6-3.6c0-2,1.6-3.6,3.6-3.6h16c2,0,3.6,1.6,3.6,3.6
			C-732.1,92.2-733.7,93.8-735.7,93.8z"/>
	</g>
	<g>
		<path class="st7" d="M-742,105.8h-58c-2,0-3.6-1.6-3.6-3.6s1.6-3.6,3.6-3.6h58c2,0,3.6,1.6,3.6,3.6S-740,105.8-742,105.8z"/>
	</g>
</g>
<g>
	<g>
		<g>
			<path class="st0" d="M316,434.9V316.1c0-7.4,6.8-13.1,14.1-13.1H350v-10.3c0-2.8,2.7-5,5.5-5s5.5,2.2,5.5,5V303h30v-10.3
				c0-2.8,1.7-5,4.5-5s4.5,2.2,4.5,5V303h30v-10.3c0-2.8,2.7-5,5.5-5s5.5,2.2,5.5,5V303h15c3.9-16,6-32.5,6-49.5
				C462,138.9,369,45.9,254.4,45.9S46.9,138.7,46.9,253.4s92.9,207.5,207.5,207.5c25.5,0,50.1-4.6,72.6-13
				C321,446.4,316,441.1,316,434.9z"/>
		</g>
		<g>
			<path class="st0" d="M441,322.8c0,2.8-2.7,5-5.5,5s-5.5-2.2-5.5-5V312h-30v10.8c0,2.8-1.7,5-4.5,5s-4.5-2.2-4.5-5V312h-30v10.8
				c0,2.8-2.7,5-5.5,5s-5.5-2.2-5.5-5V312h-19.9c-1.8,0-4.1,2.2-4.1,4.1v118.8c0,1.8,2.3,3.1,4.1,3.1h18.5c13.7-7,26.5-15,38.2-25
				H386v-15h17.1c6.4-7,11.9-13.4,17.9-20.8V372h2.9c2.3-2,4.6-5,6.7-9H421v-15h18.1c5.7-11,10.5-23,14.1-36H441V322.8z M371,413
				h-21v-15h21V413z M371,389h-21v-17h21V389z M371,363h-21v-15h21V363z M406,389h-20v-17h20V389z M406,363h-20v-15h20V363z"/>
		</g>
		<g>
			<rect x="386" y="372" class="st6" width="20" height="17"/>
		</g>
		<g>
			<path class="st6" d="M403.1,398H386v15h0.8C392.5,408,397.9,404,403.1,398z"/>
		</g>
		<g>
			<rect x="350" y="348" class="st6" width="21" height="15"/>
		</g>
		<g>
			<rect x="350" y="398" class="st6" width="21" height="15"/>
		</g>
		<g>
			<rect x="350" y="372" class="st6" width="21" height="17"/>
		</g>
		<g>
			<path class="st6" d="M421,348v15h9.6c3-4,5.9-10,8.5-15H421z"/>
		</g>
		<g>
			<path class="st6" d="M421,372v5.2c1-1.4,1.9-2.2,2.9-5.2H421z"/>
		</g>
		<g>
			<rect x="386" y="348" class="st6" width="20" height="15"/>
		</g>
		<g>
			<path class="st6" d="M330.1,438c-1.8,0-4.1-1.3-4.1-3.1V316.1c0-1.8,2.3-4.1,4.1-4.1H350v10.8c0,2.8,2.7,5,5.5,5s5.5-2.2,5.5-5
				V312h30v10.8c0,2.8,1.7,5,4.5,5s4.5-2.2,4.5-5V312h30v10.8c0,2.8,2.7,5,5.5,5s5.5-2.2,5.5-5V312h12.3c1-2,1.9-6,2.7-9h-15v-10.3
				c0-2.8-2.7-5-5.5-5s-5.5,2.2-5.5,5V303h-30v-10.3c0-2.8-1.7-5-4.5-5s-4.5,2.2-4.5,5V303h-30v-10.3c0-2.8-2.7-5-5.5-5
				s-5.5,2.2-5.5,5V303h-19.9c-7.4,0-14.1,5.7-14.1,13.1v118.8c0,6.3,5,11.4,11.1,12.9c7.5-2.8,14.5-5.7,21.6-9.7H330.1z"/>
		</g>
	</g>
	<g>
		<path class="st1" d="M201.9,426.2h-8.3c-1.5,0-2.7-1.2-2.7-2.7v-42.8c0-1.5,1.2-2.7,2.7-2.7h8.3c1.5,0,2.7,1.2,2.7,2.7v42.8
			C204.7,424.9,203.4,426.2,201.9,426.2z"/>
	</g>
	<g>
		<path class="st1" d="M173.7,406.2v-8.3c0-1.5,1.2-2.7,2.7-2.7h42.8c1.5,0,2.7,1.2,2.7,2.7v8.3c0,1.5-1.2,2.7-2.7,2.7h-42.8
			C174.9,408.9,173.7,407.7,173.7,406.2z"/>
	</g>
	<g>
		
			<ellipse transform="matrix(0.7071 -0.7071 0.7071 0.7071 -159.0139 107.3593)" class="st2" cx="50.1" cy="245.6" rx="15.1" ry="15.1"/>
	</g>
	<g>
		<path class="st2" d="M426.2,243.1L426.2,243.1c-1.4,1.4-3.6,1.4-5,0l-3.7-3.7c-1.4-1.4-1.4-3.6,0-5l0,0c1.4-1.4,3.6-1.4,5,0
			l3.7,3.7C427.6,239.4,427.6,241.7,426.2,243.1z"/>
	</g>
	<g>
		<path class="st2" d="M426.4,250.1L426.4,250.1c1.4,1.4,1.4,3.6,0,5l-3.7,3.7c-1.4,1.4-3.6,1.4-5,0v0c-1.4-1.4-1.4-3.6,0-5l3.7-3.7
			C422.8,248.8,425,248.8,426.4,250.1z"/>
	</g>
	<g>
		<path class="st2" d="M433.7,250.6L433.7,250.6c1.4-1.4,3.6-1.4,5,0l3.7,3.7c1.4,1.4,1.4,3.6,0,5l0,0c-1.4,1.4-3.6,1.4-5,0
			l-3.7-3.7C432.3,254.2,432.3,252,433.7,250.6z"/>
	</g>
	<g>
		<path class="st2" d="M433.5,243.1L433.5,243.1c-1.4-1.4-1.4-3.6,0-5l3.7-3.7c1.4-1.4,3.6-1.4,5,0l0,0c1.4,1.4,1.4,3.6,0,5
			l-3.7,3.7C437.1,244.5,434.9,244.5,433.5,243.1z"/>
	</g>
	<g>
		<g>
			<path class="st3" d="M278,347.9v2.1V347.9C278,347.9,278,347.9,278,347.9z"/>
		</g>
		<g>
			<path class="st3" d="M201.7,329.9c0,2.8,2.8,5,5.6,5c2.8,0,5.6-2.4,5.6-5.2v-91.9c0-6-5.1-17.8-18.4-17.8h-67.3
				c-2.8,0-4.3,2.9-4.3,5.7v91.7c0,2.8,1.5,5.5,4.3,5.5h67.3C196.8,323,201.7,323.5,201.7,329.9z M132,312v-83h62.6
				c6.5,0,8.4,7.9,8.4,9v75.8c-3-0.9-6-1.8-8.4-1.8H132z"/>
		</g>
		<g>
			<path class="st3" d="M260.7,303.4c6.2-9.6,22.9-35.9,26.2-47c0.7-2.4,0.7-6-1.4-8.9c-1.7-2.3-4.3-3.5-7.4-3.5h-53.7
				c-2.8,0-5.1,2.7-5.1,5.5s2.3,5.5,5.1,5.5h52.5c-4.3,13-26.5,45.9-26.7,46.2c-1.2,1.8-1.1,4,0.2,5.8c0.9,1.2,22.2,29,26.4,41
				h-83.4c-0.4,0-3.6-0.2-5.4-2c-1.1-1.1-1.7-2.9-1.7-5.1c0-2.8-2.3-5.1-5.1-5.1c-2.8,0-5.1,2.3-5.1,5.1c0,5.2,1.6,8.8,4.8,11.9
				c4.8,4.6,11.3,4.2,12.6,4.2h84.7c3.1,0,5.7-0.7,7.4-2.9c2.2-2.9,2.2-6.2,1.5-8.6C283.6,334.6,268.1,313.4,260.7,303.4z
				 M278,347.9C278,347.9,278,347.9,278,347.9v2.1V347.9z"/>
		</g>
		<g>
			<path class="st3" d="M110,219.5c-2.8,0-5,2.3-5,5.1v189.6c0,2.8,2.2,5.1,5,5.1s5-2.3,5-5.1V224.6
				C115,221.8,112.8,219.5,110,219.5z"/>
		</g>
	</g>
	<g>
		<path class="st8" d="M219.4,130.3l-6.5-10.6l-4.6,2.9c-2.4,1.5-5.3,2-8.2,1.3c-5.8-1.4-9.4-7.2-8.1-13c0.7-2.9,2.5-5.3,4.8-6.7
			l4.6-2.8l-6.5-10.6c-2.7-4.3-8.4-5.6-12.7-3l-85.4,53c-4.3,2.7-5.6,8.4-3,12.7l6.5,10.6l4.6-2.8c2.4-1.5,5.3-2,8.2-1.3
			c5.8,1.4,9.4,7.2,8.1,13c-0.7,2.9-2.5,5.3-4.8,6.7l-4.6,2.8l6.5,10.6c2.7,4.3,8.4,5.6,12.7,3l85.4-53
			C220.7,140.3,222,134.6,219.4,130.3z"/>
	</g>
	<g>
		<path class="st1" d="M190,147.4c-1.2,0-2.3-0.6-3-1.6l-22.6-33.5c-1.1-1.7-0.7-3.9,1-5c1.7-1.1,3.9-0.7,5,1l22.6,33.5
			c1.1,1.7,0.7,3.9-1,5C191.4,147.2,190.7,147.4,190,147.4z"/>
	</g>
	<g>
		<circle class="st6" cx="360.2" cy="180.2" r="4.2"/>
	</g>
	<g>
		<path class="st5" d="M225.2,172h31c3,0,6.7,2.7,6.7,5.7v21.9c0,3-3,3.6-5,3.6v10.9l-18.2-9.2h-14.6c-3,0-4.2-4.2-4.2-7.2v-20.1
			C221,174.7,222.2,172,225.2,172z"/>
	</g>
	<g>
		
			<ellipse transform="matrix(0.7071 -0.7071 0.7071 0.7071 -186.5005 315.7577)" class="st2" cx="287.9" cy="383" rx="8.3" ry="8.3"/>
	</g>
	<g>
		<circle class="st6" cx="254.4" cy="121.2" r="8.3"/>
	</g>
	<g>
		<path class="st6" d="M150.8,359.5L150.8,359.5c-0.8,0.8-2.2,0.8-3.1,0l-2.3-2.3c-0.8-0.8-0.8-2.2,0-3.1l0,0c0.8-0.8,2.2-0.8,3.1,0
			l2.3,2.3C151.7,357.2,151.7,358.6,150.8,359.5z"/>
	</g>
	<g>
		<path class="st6" d="M150.9,363.8L150.9,363.8c0.8,0.8,0.8,2.2,0,3.1l-2.3,2.3c-0.8,0.8-2.2,0.8-3.1,0h0c-0.8-0.8-0.8-2.2,0-3.1
			l2.3-2.3C148.7,362.9,150.1,362.9,150.9,363.8z"/>
	</g>
	<g>
		<path class="st6" d="M155.4,364.1L155.4,364.1c0.8-0.8,2.2-0.8,3.1,0l2.3,2.3c0.8,0.8,0.8,2.2,0,3.1l0,0c-0.8,0.8-2.2,0.8-3.1,0
			l-2.3-2.3C154.6,366.3,154.6,364.9,155.4,364.1z"/>
	</g>
	<g>
		<path class="st6" d="M155.3,359.5L155.3,359.5c-0.8-0.8-0.8-2.2,0-3.1l2.3-2.3c0.8-0.8,2.2-0.8,3.1,0h0c0.8,0.8,0.8,2.2,0,3.1
			l-2.3,2.3C157.5,360.3,156.1,360.3,155.3,359.5z"/>
	</g>
	<g>
		<g>
			<circle class="st3" cx="343.9" cy="214.9" r="7"/>
		</g>
		<g>
			<path class="st3" d="M334,89h20.1c2.8,0,5-1.7,5-4.5s-2.3-4.5-5-4.5H334c-2.8,0-5,1.7-5,4.5S331.2,89,334,89z"/>
		</g>
		<g>
			<path class="st3" d="M388.3,65h-90.3c-6.7,0-10.9,1.9-10.9,6.9v155.6c0,5.5,5.4,10.6,10.9,10.6h90.3c5.5,0,9.7-5,9.7-10.6V71.9
				C398,66.9,394.9,65,388.3,65z M388,228h-90V74h90V228z"/>
		</g>
		<g>
			<path class="st3" d="M308,205h70.3c2.8,0,4.8-2.4,4.8-5.1v-99.7c0-2.4-1.7-5.2-4.8-5.2H308c-3.1,0-6,2.8-6,5.2v99.7
				C302,202.6,305.2,205,308,205z M373,104v91h-60v-91H373z"/>
		</g>
	</g>
	<g>
		<path class="st1" d="M332,258h-21.8c-2.1,0-5.2,1.2-5.2,3.3v15.4c0,2.1,3,2.6,6,2.6v7.7l10.7-7H332c2.1,0,3-2.5,3-4.6v-14.1
			C335,259.2,334.1,258,332,258z"/>
	</g>
	<g>
		<path class="st6" d="M327,186c-2.1,0-4-1.7-4-3.8V117c0-2.1,1.9-3.8,4-3.8s4,1.7,4,3.8v65.2C331,184.3,329.1,186,327,186z"/>
	</g>
	<g>
		<path class="st1" d="M144.9,175c-1.2,0-2.3-0.6-3-1.6L119.3,140c-1.1-1.7-0.7-3.9,1-5c1.7-1.1,3.9-0.7,5,1l22.6,33.5
			c1.1,1.7,0.7,3.9-1,5C146.3,174.8,145.6,175,144.9,175z"/>
	</g>
	<g>
		<path class="st7" d="M246.5,425.8c-2,0-3.6-1.6-3.6-3.5c0-2,1.5-3.6,3.5-3.7l35.3-0.7c0,0,0,0,0.1,0c2,0,3.6,1.6,3.6,3.5
			c0,2-1.5,3.6-3.5,3.7L246.5,425.8C246.5,425.8,246.5,425.8,246.5,425.8z"/>
	</g>
	<g>
		<path class="st7" d="M272.4,72.7h-50.3c-2,0-3.6-1.6-3.6-3.6c0-2,1.6-3.6,3.6-3.6h50.3c2,0,3.6,1.6,3.6,3.6
			C276,71,274.4,72.7,272.4,72.7z"/>
	</g>
	<g>
		<path class="st7" d="M237.1,88.9h-13.9c-2,0-3.6-1.6-3.6-3.6c0-2,1.6-3.6,3.6-3.6h13.9c2,0,3.6,1.6,3.6,3.6
			C240.7,87.2,239.1,88.9,237.1,88.9z"/>
	</g>
	<g>
		<path class="st7" d="M293.9,439.3h-8.8c-2,0-3.6-1.6-3.6-3.6c0-2,1.6-3.6,3.6-3.6h8.8c2,0,3.6,1.6,3.6,3.6
			C297.5,437.7,295.9,439.3,293.9,439.3z"/>
	</g>
	<g>
		<path class="st7" d="M256.2,411.7h-8.8c-2,0-3.6-1.6-3.6-3.6s1.6-3.6,3.6-3.6h8.8c2,0,3.6,1.6,3.6,3.6S258.2,411.7,256.2,411.7z"
			/>
	</g>
</g>
</svg>
