<?xml version="1.0" encoding="utf-8"?>
<!-- Generator: Adobe Illustrator 19.2.0, SVG Export Plug-In . SVG Version: 6.00 Build 0)  -->
<svg version="1.1" id="Layer_1" xmlns="http://www.w3.org/2000/svg" xmlns:xlink="http://www.w3.org/1999/xlink" x="0px" y="0px"
	 viewBox="0 0 500 500" style="enable-background:new 0 0 500 500;" xml:space="preserve">
<style type="text/css">
	.st0{fill:#F4F4F4;}
	.st1{fill:#D3D3D3;}
	.st2{fill:#E2E2E2;}
	.st3{fill:#4F4F4F;}
	.st4{fill:#848484;}
	.st5{fill:#9B9B9B;}
	.st6{fill:#FFFFFF;}
	.st7{fill:#E8E8E8;}
</style>
<g>
	<g>
		<circle class="st0" cx="253.6" cy="254.8" r="207.5"/>
	</g>
	<g>
		<path class="st1" d="M211.1,116.6h-8.3c-1.5,0-2.7-1.2-2.7-2.7V71c0-1.5,1.2-2.7,2.7-2.7h8.3c1.5,0,2.7,1.2,2.7,2.7v42.8
			C213.8,115.3,212.6,116.6,211.1,116.6z"/>
	</g>
	<g>
		<path class="st1" d="M182.8,96.6v-8.3c0-1.5,1.2-2.7,2.7-2.7h42.8c1.5,0,2.7,1.2,2.7,2.7v8.3c0,1.5-1.2,2.7-2.7,2.7h-42.8
			C184.1,99.3,182.8,98.1,182.8,96.6z"/>
	</g>
	<g>
		<ellipse transform="matrix(0.7071 -0.7071 0.7071 0.7071 -110.6283 240.9255)" class="st2" cx="235.5" cy="254" rx="13" ry="13"/>
	</g>
	<g>
		<path class="st3" d="M457.1,416.7c-8.4-31.4-41.7-38.6-59.6-42.5c-3.7-0.8-7.3-1.6-8.8-2.3c-10.5-4.6-17.6-11.1-21.2-19.5
			c32,1.7,46.7-11.3,47.4-11.9c1.2-1.1,1.8-2.7,1.6-4.3c-0.2-1.6-1.1-3.1-2.5-3.9c-18.3-10.4-18.3-47.4-18.3-61.3
			c0-40.5-27.5-72.7-62.5-73.2c-0.1,0-0.9,0-1.1,0c-35.6,0.2-64.6,32.4-64.6,71.8c0,13.9,0,50.9-18.3,61.3c-1.5,0.8-2.4,2.4-2.6,4.1
			c-0.1,1.7,0.6,3.3,2,4.4c0.9,0.7,21.2,16.2,46.6,12.8c-3.7,7.9-10.6,14-20.6,18.4c-1.6,0.7-5.1,1.5-8.6,2.4
			c-18,4.3-51.4,12.2-59.9,43.8c-0.7,2.7,0.9,5.5,3.6,6.2c2.8,0.7,5.5-0.9,6.2-3.6c6.9-25.7,35.3-32.5,52.4-36.6
			c4.4-1,7.9-1.9,10.3-2.9c20.4-8.9,27.1-23.2,29.1-33.7c0.3-1.8-0.3-3.6-1.6-4.8c-1.3-1.2-3.2-1.6-4.9-1.1
			c-16.9,5.3-32.8-1.3-40.5-5.5c17-16.4,17-50.5,17-65.3c0-33.8,24.6-61.4,54.7-61.6l0.4,0c0.2,0,0.4,0,0.4,0
			c29.8,0.4,52.4,27.5,52.4,63c0,14.9,0,49,17,65.4c-7,3.5-20.4,7.8-41.4,5.2c-1.6-0.2-3.2,0.4-4.4,1.6c-1.1,1.2-1.6,2.8-1.3,4.4
			c2,10.5,8.7,24.8,29.1,33.7c2.5,1.1,6.4,1.9,10.9,2.9c16.8,3.6,45,9.7,51.8,35.1c0.6,2.2,2.6,3.8,4.9,3.8c0.4,0,0.9-0.1,1.3-0.2
			C456.2,422.2,457.8,419.4,457.1,416.7z"/>
	</g>
	<g>
		<path class="st4" d="M376.7,69h-80.3c-7.8,0-17.5,6.4-17.5,14.2v56.6c0,7.8,8,9.4,18,9.4v28.3l42-25.7h37.8
			c7.8,0,14.3-9,14.3-16.8V83.2C391,75.4,384.6,69,376.7,69z"/>
	</g>
	<g>
		<path class="st5" d="M202.6,159h51.1c5,0,10.3,4.2,10.3,9.2v36c0,5-4,6-10,6v18L226.6,212h-24c-5,0-7.6-5.8-7.6-10.8v-33
			C195,163.2,197.6,159,202.6,159z"/>
	</g>
	<g>
		<path class="st1" d="M451.2,200.7H447c-0.8,0-1.4-0.6-1.4-1.4v-22c0-0.8,0.6-1.4,1.4-1.4h4.3c0.8,0,1.4,0.6,1.4,1.4v22
			C452.6,200.1,452,200.7,451.2,200.7z"/>
	</g>
	<g>
		<path class="st1" d="M436.7,190.4v-4.3c0-0.8,0.6-1.4,1.4-1.4h22c0.8,0,1.4,0.6,1.4,1.4v4.3c0,0.8-0.6,1.4-1.4,1.4h-22
			C437.3,191.9,436.7,191.2,436.7,190.4z"/>
	</g>
	<g>
		<path class="st3" d="M214.3,276.6c-6-22.4-29.4-27.5-42.1-30.2c-2.6-0.6-5-1.1-6-1.5c-7.8-3.4-12.8-8.4-14.8-14.9
			c8-7.3,14.8-18.2,18.7-30.2c4.4-5.8,6.8-11.8,6.8-17c0-3.5-1.1-6.5-3.1-8.9c-1.5-27.7-21.8-49.5-46.4-49.9l-0.8,0
			c-24.1,0.1-44.4,21.3-46.6,48.4c-3,2.6-4.6,6.1-4.6,10.4c0,6.1,3.3,13.3,9.1,19.9c3.8,10.3,9.7,19.6,16.6,26.2
			c-2,6.6-7,11.6-14.9,15c-1,0.4-3.5,1-5.8,1.6c-12.7,3-36.3,8.6-42.3,31.1c-0.6,2.4,0.8,4.9,3.2,5.6l0,0c2.4,0.6,4.9-0.9,5.6-3.2
			c4.6-17.2,24-21.9,35.6-24.6c3.1-0.7,5.6-1.3,7.3-2.1c14.6-6.3,19.4-16.6,20.8-24.1c0.3-1.6-0.3-3.3-1.5-4.3
			c-6.9-5.9-12.7-14.9-16.3-25.1c-0.2-0.6-0.5-1.1-0.9-1.6c-4.6-5-7.3-10.4-7.3-14.4c0-1.9,0.6-3,2.3-4c1.3-0.8,2.2-2.2,2.2-3.7
			c1-23.4,17.6-41.8,37.9-41.9c0.2,0,0.4,0,0.4,0c20.4,0.3,36.8,19.1,37.4,42.8c0,1.3,0.6,2.5,1.6,3.4c1,0.9,1.4,1.9,1.4,3.4
			c0,3.3-1.9,7.7-5.3,12c-0.3,0.4-0.6,0.9-0.8,1.4c-3.7,11.8-10.4,22.2-18.3,28.6c-1.3,1.1-1.9,2.8-1.6,4.4
			c1.4,7.5,6.2,17.8,20.8,24.1c1.8,0.8,4.6,1.4,7.7,2.1c11.4,2.5,30.6,6.6,35.1,23.6c0.5,2,2.4,3.4,4.4,3.4c0.4,0,0.8,0,1.2-0.2
			C213.5,281.5,215,279,214.3,276.6z"/>
	</g>
	<g>
		<path class="st1" d="M126.6,378.9c-5.9,0-11.7-2.2-16.2-6.7c-8.9-8.9-8.9-23.4,0-32.4c8.9-8.9,23.4-8.9,32.4,0
			c8.9,8.9,8.9,23.4,0,32.4C138.3,376.7,132.4,378.9,126.6,378.9z M126.6,340.4c-4,0-8,1.5-11.1,4.6c-6.1,6.1-6.1,16,0,22.1
			c6.1,6.1,16,6.1,22.1,0c6.1-6.1,6.1-16,0-22.1C134.6,341.9,130.6,340.4,126.6,340.4z"/>
	</g>
	<g>
		<path class="st1" d="M186.3,343.1c-4.4,0-8.8-1.7-12.2-5c-3.2-3.2-5-7.6-5-12.2c0-4.6,1.8-8.9,5-12.2c6.7-6.7,17.6-6.7,24.3,0
			c6.7,6.7,6.7,17.6,0,24.3l0,0C195.1,341.4,190.7,343.1,186.3,343.1z M186.3,316c-2.5,0-5.1,1-7,2.9c-1.9,1.9-2.9,4.4-2.9,7
			c0,2.7,1,5.2,2.9,7c3.9,3.9,10.2,3.9,14.1,0c3.9-3.9,3.9-10.2,0-14.1C191.4,317,188.8,316,186.3,316z"/>
	</g>
	<g>
		<path class="st1" d="M186.3,400.8c-4.4,0-8.8-1.7-12.2-5c-3.2-3.2-5-7.6-5-12.2c0-4.6,1.8-8.9,5-12.2c6.7-6.7,17.6-6.7,24.3,0
			c6.7,6.7,6.7,17.6,0,24.3l0,0C195.1,399.2,190.7,400.8,186.3,400.8z M186.3,373.7c-2.5,0-5.1,1-7,2.9c-1.9,1.9-2.9,4.4-2.9,7
			c0,2.7,1,5.2,2.9,7c3.9,3.9,10.2,3.9,14.1,0c3.9-3.9,3.9-10.2,0-14.1C191.4,374.7,188.8,373.7,186.3,373.7z"/>
	</g>
	<g>
		<path class="st1" d="M128.4,368.8h-4.3c-0.8,0-1.4-0.6-1.4-1.4v-22c0-0.8,0.6-1.4,1.4-1.4h4.3c0.8,0,1.4,0.6,1.4,1.4v22
			C129.8,368.2,129.2,368.8,128.4,368.8z"/>
	</g>
	<g>
		<path class="st1" d="M113.8,358.6v-4.3c0-0.8,0.6-1.4,1.4-1.4h22c0.8,0,1.4,0.6,1.4,1.4v4.3c0,0.8-0.6,1.4-1.4,1.4h-22
			C114.5,360,113.8,359.3,113.8,358.6z"/>
	</g>
	<g>
		
			<rect x="143" y="335.5" transform="matrix(0.8931 -0.4499 0.4499 0.8931 -135.5622 107.9381)" class="st1" width="32.6" height="7.2"/>
	</g>
	<g>
		
			<rect x="155.7" y="355.5" transform="matrix(0.45 -0.893 0.893 0.45 -244.3967 346.7246)" class="st1" width="7.2" height="32.6"/>
	</g>
	<g>
		<path class="st2" d="M271.1,423.2L271.1,423.2c-1.4,1.4-3.6,1.4-5,0l-3.7-3.7c-1.4-1.4-1.4-3.6,0-5l0,0c1.4-1.4,3.6-1.4,5,0
			l3.7,3.7C272.5,419.6,272.5,421.8,271.1,423.2z"/>
	</g>
	<g>
		<path class="st2" d="M271.3,430.3L271.3,430.3c1.4,1.4,1.4,3.6,0,5l-3.7,3.7c-1.4,1.4-3.6,1.4-5,0l0,0c-1.4-1.4-1.4-3.6,0-5
			l3.7-3.7C267.7,428.9,269.9,428.9,271.3,430.3z"/>
	</g>
	<g>
		<path class="st2" d="M278.6,430.7L278.6,430.7c1.4-1.4,3.6-1.4,5,0l3.7,3.7c1.4,1.4,1.4,3.6,0,5h0c-1.4,1.4-3.6,1.4-5,0l-3.7-3.7
			C277.2,434.3,277.2,432.1,278.6,430.7z"/>
	</g>
	<g>
		<path class="st2" d="M278.4,423.2L278.4,423.2c-1.4-1.4-1.4-3.6,0-5l3.7-3.7c1.4-1.4,3.6-1.4,5,0l0,0c1.4,1.4,1.4,3.6,0,5
			l-3.7,3.7C282,424.6,279.8,424.6,278.4,423.2z"/>
	</g>
	<g>
		
			<ellipse transform="matrix(0.7071 -0.7071 0.7071 0.7071 -17.3656 317.9488)" class="st2" cx="375.1" cy="179.9" rx="11.3" ry="11.3"/>
	</g>
	<g>
		
			<ellipse transform="matrix(0.7071 -0.7071 0.7071 0.7071 -52.3294 382.3197)" class="st2" cx="435.3" cy="254.3" rx="8.3" ry="8.3"/>
	</g>
	<g>
		<path class="st6" d="M371.1,268.9c-1.8,0-3.4-1.4-3.6-3.3c-1.4-14.9-6.1-25.3-13.8-31.1c-8.6-6.4-18.2-4.7-18.3-4.6
			c-2,0.4-3.9-0.9-4.2-2.9c-0.4-2,0.9-3.9,2.9-4.2c0.5-0.1,12.8-2.4,24,5.9c9.4,7,15,19.2,16.7,36.2c0.2,2-1.3,3.8-3.2,3.9
			C371.3,268.9,371.2,268.9,371.1,268.9z"/>
	</g>
	<g>
		<circle class="st6" cx="246.5" cy="66.3" r="4.2"/>
	</g>
	<g>
		<path class="st6" d="M138.8,103.9L138.8,103.9c-0.7,0.7-2,0.7-2.7,0l-2-2c-0.7-0.7-0.7-2,0-2.7v0c0.7-0.7,2-0.7,2.7,0l2,2
			C139.6,102,139.6,103.2,138.8,103.9z"/>
	</g>
	<g>
		<path class="st6" d="M139,107.8L139,107.8c0.7,0.7,0.7,2,0,2.7l-2,2c-0.7,0.7-2,0.7-2.7,0l0,0c-0.7-0.7-0.7-2,0-2.7l2-2
			C137,107,138.2,107,139,107.8z"/>
	</g>
	<g>
		<path class="st6" d="M142.9,108L142.9,108c0.7-0.7,2-0.7,2.7,0l2,2c0.7,0.7,0.7,2,0,2.7l0,0c-0.7,0.7-2,0.7-2.7,0l-2-2
			C142.2,110,142.2,108.7,142.9,108z"/>
	</g>
	<g>
		<path class="st6" d="M142.8,103.9L142.8,103.9c-0.7-0.7-0.7-2,0-2.7l2-2c0.7-0.7,2-0.7,2.7,0v0c0.7,0.7,0.7,2,0,2.7l-2,2
			C144.7,104.7,143.5,104.7,142.8,103.9z"/>
	</g>
	<g>
		<path class="st6" d="M65,279c-0.6,0-1.1-0.1-1.7-0.4c-1.8-0.9-2.4-3.1-1.5-4.9c0.3-0.5,6.8-12.4,32.1-13.2c2-0.7,12.6-4.7,18-16.2
			c0.9-1.8,3-2.6,4.8-1.7c1.8,0.9,2.6,3,1.7,4.8c-7.5,15.7-22.4,19.9-23,20.1c-0.3,0.1-0.6,0.1-0.9,0.1c-21.1,0.6-26.3,9.3-26.4,9.4
			C67.5,278.3,66.3,279,65,279z"/>
	</g>
	<g>
		<path class="st7" d="M152.8,295h-31.7c-2,0-3.6-1.6-3.6-3.6s1.6-3.6,3.6-3.6h31.7c2,0,3.6,1.6,3.6,3.6S154.8,295,152.8,295z"/>
	</g>
	<g>
		<path class="st7" d="M117.4,305.3h-8.8c-2,0-3.6-1.6-3.6-3.6s1.6-3.6,3.6-3.6h8.8c2,0,3.6,1.6,3.6,3.6S119.4,305.3,117.4,305.3z"
			/>
	</g>
	<g>
		<path class="st7" d="M262.3,126.8h-16c-2,0-3.6-1.6-3.6-3.6c0-2,1.6-3.6,3.6-3.6h16c2,0,3.6,1.6,3.6,3.6
			C265.9,125.2,264.3,126.8,262.3,126.8z"/>
	</g>
	<g>
		<path class="st7" d="M256,138.8h-58c-2,0-3.6-1.6-3.6-3.6c0-2,1.6-3.6,3.6-3.6h58c2,0,3.6,1.6,3.6,3.6
			C259.6,137.1,258,138.8,256,138.8z"/>
	</g>
</g>
</svg>
