<?xml version="1.0" encoding="utf-8"?>
<!-- Generator: Adobe Illustrator 19.2.0, SVG Export Plug-In . SVG Version: 6.00 Build 0)  -->
<svg version="1.1" id="Layer_1" xmlns="http://www.w3.org/2000/svg" xmlns:xlink="http://www.w3.org/1999/xlink" x="0px" y="0px"
	 viewBox="0 0 500 500" style="enable-background:new 0 0 500 500;" xml:space="preserve">
<style type="text/css">
	.st0{fill:#F4F4F4;}
	.st1{fill:#D3D3D3;}
	.st2{fill:#E2E2E2;}
	.st3{fill:#4F4F4F;}
	.st4{fill:#848484;}
	.st5{fill:#9B9B9B;}
	.st6{fill:#FFFFFF;}
	.st7{fill:#E8E8E8;}
	.st8{fill:#939393;}
	.st9{fill:none;}
</style>
<g>
	<g>
		<circle class="st0" cx="-744.4" cy="221.8" r="207.5"/>
	</g>
	<g>
		<path class="st1" d="M-786.9,83.6h-8.3c-1.5,0-2.7-1.2-2.7-2.7V38c0-1.5,1.2-2.7,2.7-2.7h8.3c1.5,0,2.7,1.2,2.7,2.7v42.8
			C-784.2,82.3-785.4,83.6-786.9,83.6z"/>
	</g>
	<g>
		<path class="st1" d="M-815.2,63.6v-8.3c0-1.5,1.2-2.7,2.7-2.7h42.8c1.5,0,2.7,1.2,2.7,2.7v8.3c0,1.5-1.2,2.7-2.7,2.7h-42.8
			C-813.9,66.3-815.2,65.1-815.2,63.6z"/>
	</g>
	<g>
		
			<ellipse transform="matrix(0.7071 -0.7071 0.7071 0.7071 -379.6012 -474.4326)" class="st2" cx="-762.5" cy="221" rx="13" ry="13"/>
	</g>
	<g>
		<path class="st3" d="M-540.9,383.7c-8.4-31.4-41.7-38.6-59.6-42.5c-3.7-0.8-7.3-1.6-8.8-2.3c-10.5-4.6-17.6-11.1-21.2-19.5
			c32,1.7,46.7-11.3,47.4-11.9c1.2-1.1,1.8-2.7,1.6-4.3c-0.2-1.6-1.1-3.1-2.5-3.9c-18.3-10.4-18.3-47.4-18.3-61.3
			c0-40.5-27.5-72.7-62.5-73.2c-0.1,0-0.9,0-1.1,0c-35.6,0.2-64.6,32.4-64.6,71.8c0,13.9,0,50.9-18.3,61.3c-1.5,0.8-2.4,2.4-2.6,4.1
			c-0.1,1.7,0.6,3.3,2,4.4c0.9,0.7,21.2,16.2,46.6,12.8c-3.7,7.9-10.6,14-20.6,18.4c-1.6,0.7-5.1,1.5-8.6,2.4
			c-18,4.3-51.4,12.2-59.9,43.8c-0.7,2.7,0.9,5.5,3.6,6.2c2.8,0.7,5.5-0.9,6.2-3.6c6.9-25.7,35.3-32.5,52.4-36.6
			c4.4-1,7.9-1.9,10.3-2.9c20.4-8.9,27.1-23.2,29.1-33.7c0.3-1.8-0.3-3.6-1.6-4.8c-1.3-1.2-3.2-1.6-4.9-1.1
			c-16.9,5.3-32.8-1.3-40.5-5.5c17-16.4,17-50.5,17-65.3c0-33.8,24.6-61.4,54.7-61.6l0.4,0c0.2,0,0.4,0,0.4,0
			c29.8,0.4,52.4,27.5,52.4,63c0,14.9,0,49,17,65.4c-7,3.5-20.4,7.8-41.4,5.2c-1.6-0.2-3.2,0.4-4.4,1.6c-1.1,1.2-1.6,2.8-1.3,4.4
			c2,10.5,8.7,24.8,29.1,33.7c2.5,1.1,6.4,1.9,10.9,2.9c16.8,3.6,45,9.7,51.8,35.1c0.6,2.2,2.6,3.8,4.9,3.8c0.4,0,0.9-0.1,1.3-0.2
			C-541.8,389.2-540.2,386.4-540.9,383.7z"/>
	</g>
	<g>
		<path class="st4" d="M-621.3,36h-80.3c-7.8,0-17.5,6.4-17.5,14.2v56.6c0,7.8,8,9.4,18,9.4v28.3l42-25.7h37.8
			c7.8,0,14.3-9,14.3-16.8V50.2C-607,42.4-613.4,36-621.3,36z"/>
	</g>
	<g>
		<path class="st5" d="M-795.4,126h51.1c5,0,10.3,4.2,10.3,9.2v36c0,5-4,6-10,6v18l-27.4-16.2h-24c-5,0-7.6-5.8-7.6-10.8v-33
			C-803,130.2-800.4,126-795.4,126z"/>
	</g>
	<g>
		<path class="st1" d="M-546.8,167.7h-4.3c-0.8,0-1.4-0.6-1.4-1.4v-22c0-0.8,0.6-1.4,1.4-1.4h4.3c0.8,0,1.4,0.6,1.4,1.4v22
			C-545.4,167.1-546,167.7-546.8,167.7z"/>
	</g>
	<g>
		<path class="st1" d="M-561.3,157.4v-4.3c0-0.8,0.6-1.4,1.4-1.4h22c0.8,0,1.4,0.6,1.4,1.4v4.3c0,0.8-0.6,1.4-1.4,1.4h-22
			C-560.7,158.9-561.3,158.2-561.3,157.4z"/>
	</g>
	<g>
		<path class="st3" d="M-783.7,243.6c-6-22.4-29.4-27.5-42.1-30.2c-2.6-0.6-5-1.1-6-1.5c-7.8-3.4-12.8-8.4-14.8-14.9
			c8-7.3,14.8-18.2,18.7-30.2c4.4-5.8,6.8-11.8,6.8-17c0-3.5-1.1-6.5-3.1-8.9c-1.5-27.7-21.8-49.5-46.4-49.9l-0.8,0
			c-24.1,0.1-44.4,21.3-46.6,48.4c-3,2.6-4.6,6.1-4.6,10.4c0,6.1,3.3,13.3,9.1,19.9c3.8,10.3,9.7,19.6,16.6,26.2
			c-2,6.6-7,11.6-14.9,15c-1,0.4-3.5,1-5.8,1.6c-12.7,3-36.3,8.6-42.3,31.1c-0.6,2.4,0.8,4.9,3.2,5.6l0,0c2.4,0.6,4.9-0.9,5.6-3.2
			c4.6-17.2,24-21.9,35.6-24.6c3.1-0.7,5.6-1.3,7.3-2.1c14.6-6.3,19.4-16.6,20.8-24.1c0.3-1.6-0.3-3.3-1.5-4.3
			c-6.9-5.9-12.7-14.9-16.3-25.1c-0.2-0.6-0.5-1.1-0.9-1.6c-4.6-5-7.3-10.4-7.3-14.4c0-1.9,0.6-3,2.3-4c1.3-0.8,2.2-2.2,2.2-3.7
			c1-23.4,17.6-41.8,37.9-41.9c0.2,0,0.4,0,0.4,0c20.4,0.3,36.8,19.1,37.4,42.8c0,1.3,0.6,2.5,1.6,3.4c1,0.9,1.4,1.9,1.4,3.4
			c0,3.3-1.9,7.7-5.3,12c-0.3,0.4-0.6,0.9-0.8,1.4c-3.7,11.8-10.4,22.2-18.3,28.6c-1.3,1.1-1.9,2.8-1.6,4.4
			c1.4,7.5,6.2,17.8,20.8,24.1c1.8,0.8,4.6,1.4,7.7,2.1c11.4,2.5,30.6,6.6,35.1,23.6c0.5,2,2.4,3.4,4.4,3.4c0.4,0,0.8,0,1.2-0.2
			C-784.5,248.5-783,246-783.7,243.6z"/>
	</g>
	<g>
		<path class="st1" d="M-871.4,345.9c-5.9,0-11.7-2.2-16.2-6.7c-8.9-8.9-8.9-23.4,0-32.4c8.9-8.9,23.4-8.9,32.4,0
			c8.9,8.9,8.9,23.4,0,32.4C-859.7,343.7-865.6,345.9-871.4,345.9z M-871.4,307.4c-4,0-8,1.5-11.1,4.6c-6.1,6.1-6.1,16,0,22.1
			c6.1,6.1,16,6.1,22.1,0c6.1-6.1,6.1-16,0-22.1C-863.4,308.9-867.4,307.4-871.4,307.4z"/>
	</g>
	<g>
		<path class="st1" d="M-811.7,310.1c-4.4,0-8.8-1.7-12.2-5c-3.2-3.2-5-7.6-5-12.2c0-4.6,1.8-8.9,5-12.2c6.7-6.7,17.6-6.7,24.3,0
			c6.7,6.7,6.7,17.6,0,24.3l0,0C-802.9,308.4-807.3,310.1-811.7,310.1z M-811.7,283c-2.5,0-5.1,1-7,2.9c-1.9,1.9-2.9,4.4-2.9,7
			c0,2.7,1,5.2,2.9,7c3.9,3.9,10.2,3.9,14.1,0c3.9-3.9,3.9-10.2,0-14.1C-806.6,284-809.2,283-811.7,283z"/>
	</g>
	<g>
		<path class="st1" d="M-811.7,367.8c-4.4,0-8.8-1.7-12.2-5c-3.2-3.2-5-7.6-5-12.2c0-4.6,1.8-8.9,5-12.2c6.7-6.7,17.6-6.7,24.3,0
			c6.7,6.7,6.7,17.6,0,24.3l0,0C-802.9,366.2-807.3,367.8-811.7,367.8z M-811.7,340.7c-2.5,0-5.1,1-7,2.9c-1.9,1.9-2.9,4.4-2.9,7
			c0,2.7,1,5.2,2.9,7c3.9,3.9,10.2,3.9,14.1,0c3.9-3.9,3.9-10.2,0-14.1C-806.6,341.7-809.2,340.7-811.7,340.7z"/>
	</g>
	<g>
		<path class="st1" d="M-869.6,335.8h-4.3c-0.8,0-1.4-0.6-1.4-1.4v-22c0-0.8,0.6-1.4,1.4-1.4h4.3c0.8,0,1.4,0.6,1.4,1.4v22
			C-868.2,335.2-868.8,335.8-869.6,335.8z"/>
	</g>
	<g>
		<path class="st1" d="M-884.2,325.6v-4.3c0-0.8,0.6-1.4,1.4-1.4h22c0.8,0,1.4,0.6,1.4,1.4v4.3c0,0.8-0.6,1.4-1.4,1.4h-22
			C-883.5,327-884.2,326.3-884.2,325.6z"/>
	</g>
	<g>
		
			<rect x="-855" y="302.5" transform="matrix(0.8931 -0.4499 0.4499 0.8931 -227.434 -344.6148)" class="st1" width="32.6" height="7.2"/>
	</g>
	<g>
		
			<rect x="-842.3" y="322.5" transform="matrix(0.45 -0.893 0.893 0.45 -763.8069 -562.657)" class="st1" width="7.2" height="32.6"/>
	</g>
	<g>
		<path class="st2" d="M-726.9,390.2L-726.9,390.2c-1.4,1.4-3.6,1.4-5,0l-3.7-3.7c-1.4-1.4-1.4-3.6,0-5l0,0c1.4-1.4,3.6-1.4,5,0
			l3.7,3.7C-725.5,386.6-725.5,388.8-726.9,390.2z"/>
	</g>
	<g>
		<path class="st2" d="M-726.7,397.3L-726.7,397.3c1.4,1.4,1.4,3.6,0,5l-3.7,3.7c-1.4,1.4-3.6,1.4-5,0l0,0c-1.4-1.4-1.4-3.6,0-5
			l3.7-3.7C-730.3,395.9-728.1,395.9-726.7,397.3z"/>
	</g>
	<g>
		<path class="st2" d="M-719.4,397.7L-719.4,397.7c1.4-1.4,3.6-1.4,5,0l3.7,3.7c1.4,1.4,1.4,3.6,0,5l0,0c-1.4,1.4-3.6,1.4-5,0
			l-3.7-3.7C-720.8,401.3-720.8,399.1-719.4,397.7z"/>
	</g>
	<g>
		<path class="st2" d="M-719.6,390.2L-719.6,390.2c-1.4-1.4-1.4-3.6,0-5l3.7-3.7c1.4-1.4,3.6-1.4,5,0l0,0c1.4,1.4,1.4,3.6,0,5
			l-3.7,3.7C-716,391.6-718.2,391.6-719.6,390.2z"/>
	</g>
	<g>
		
			<ellipse transform="matrix(0.7071 -0.7071 0.7071 0.7071 -286.3385 -397.4093)" class="st2" cx="-622.9" cy="146.9" rx="11.3" ry="11.3"/>
	</g>
	<g>
		
			<ellipse transform="matrix(0.7071 -0.7071 0.7071 0.7071 -321.3023 -333.0383)" class="st2" cx="-562.7" cy="221.3" rx="8.3" ry="8.3"/>
	</g>
	<g>
		<path class="st6" d="M-626.9,235.9c-1.8,0-3.4-1.4-3.6-3.3c-1.4-14.9-6.1-25.3-13.8-31.1c-8.6-6.4-18.2-4.7-18.3-4.6
			c-2,0.4-3.9-0.9-4.2-2.9c-0.4-2,0.9-3.9,2.9-4.2c0.5-0.1,12.8-2.4,24,5.9c9.4,7,15,19.2,16.7,36.2c0.2,2-1.3,3.8-3.2,3.9
			C-626.7,235.9-626.8,235.9-626.9,235.9z"/>
	</g>
	<g>
		<circle class="st6" cx="-751.5" cy="33.3" r="4.2"/>
	</g>
	<g>
		<path class="st6" d="M-859.2,70.9L-859.2,70.9c-0.7,0.7-2,0.7-2.7,0l-2-2c-0.7-0.7-0.7-2,0-2.7v0c0.7-0.7,2-0.7,2.7,0l2,2
			C-858.4,69-858.4,70.2-859.2,70.9z"/>
	</g>
	<g>
		<path class="st6" d="M-859,74.8L-859,74.8c0.7,0.7,0.7,2,0,2.7l-2,2c-0.7,0.7-2,0.7-2.7,0l0,0c-0.7-0.7-0.7-2,0-2.7l2-2
			C-861,74-859.8,74-859,74.8z"/>
	</g>
	<g>
		<path class="st6" d="M-855.1,75L-855.1,75c0.7-0.7,2-0.7,2.7,0l2,2c0.7,0.7,0.7,2,0,2.7l0,0c-0.7,0.7-2,0.7-2.7,0l-2-2
			C-855.8,77-855.8,75.7-855.1,75z"/>
	</g>
	<g>
		<path class="st6" d="M-855.2,70.9L-855.2,70.9c-0.7-0.7-0.7-2,0-2.7l2-2c0.7-0.7,2-0.7,2.7,0v0c0.7,0.7,0.7,2,0,2.7l-2,2
			C-853.3,71.7-854.5,71.7-855.2,70.9z"/>
	</g>
	<g>
		<path class="st6" d="M-933,246c-0.6,0-1.1-0.1-1.7-0.4c-1.8-0.9-2.4-3.1-1.5-4.9c0.3-0.5,6.8-12.4,32.1-13.2
			c2-0.7,12.6-4.7,18-16.2c0.9-1.8,3-2.6,4.8-1.7c1.8,0.9,2.6,3,1.7,4.8c-7.5,15.7-22.4,19.9-23,20.1c-0.3,0.1-0.6,0.1-0.9,0.1
			c-21.1,0.6-26.3,9.3-26.4,9.4C-930.5,245.3-931.7,246-933,246z"/>
	</g>
	<g>
		<path class="st7" d="M-845.2,262h-31.7c-2,0-3.6-1.6-3.6-3.6s1.6-3.6,3.6-3.6h31.7c2,0,3.6,1.6,3.6,3.6S-843.2,262-845.2,262z"/>
	</g>
	<g>
		<path class="st7" d="M-880.6,272.3h-8.8c-2,0-3.6-1.6-3.6-3.6s1.6-3.6,3.6-3.6h8.8c2,0,3.6,1.6,3.6,3.6S-878.6,272.3-880.6,272.3z
			"/>
	</g>
	<g>
		<path class="st7" d="M-735.7,93.8h-16c-2,0-3.6-1.6-3.6-3.6c0-2,1.6-3.6,3.6-3.6h16c2,0,3.6,1.6,3.6,3.6
			C-732.1,92.2-733.7,93.8-735.7,93.8z"/>
	</g>
	<g>
		<path class="st7" d="M-742,105.8h-58c-2,0-3.6-1.6-3.6-3.6s1.6-3.6,3.6-3.6h58c2,0,3.6,1.6,3.6,3.6S-740,105.8-742,105.8z"/>
	</g>
</g>
<g>
	<g>
		<g>
			<path class="st0" d="M-176,405.9V287.1c0-7.4,6.8-13.1,14.1-13.1h19.9v-10.3c0-2.8,2.7-5,5.5-5s5.5,2.2,5.5,5V274h30v-10.3
				c0-2.8,1.7-5,4.5-5s4.5,2.2,4.5,5V274h30v-10.3c0-2.8,2.7-5,5.5-5s5.5,2.2,5.5,5V274h15c3.9-16,6-32.5,6-49.5
				C-30,109.9-123,16.9-237.6,16.9s-207.5,92.9-207.5,207.5s92.9,207.5,207.5,207.5c25.5,0,50.1-4.6,72.6-13
				C-171,417.4-176,412.1-176,405.9z"/>
		</g>
		<g>
			<path class="st0" d="M-51,293.8c0,2.8-2.7,5-5.5,5s-5.5-2.2-5.5-5V283h-30v10.8c0,2.8-1.7,5-4.5,5s-4.5-2.2-4.5-5V283h-30v10.8
				c0,2.8-2.7,5-5.5,5s-5.5-2.2-5.5-5V283h-19.9c-1.8,0-4.1,2.2-4.1,4.1v118.8c0,1.8,2.3,3.1,4.1,3.1h18.5c13.7-7,26.5-15,38.2-25
				h-0.8v-15h17.1c6.4-7,11.9-13.4,17.9-20.8V343h2.9c2.3-2,4.6-5,6.7-9H-71v-15h18.1c5.7-11,10.5-23,14.1-36H-51V293.8z M-121,384
				h-21v-15h21V384z M-121,360h-21v-17h21V360z M-121,334h-21v-15h21V334z M-86,360h-20v-17h20V360z M-86,334h-20v-15h20V334z"/>
		</g>
		<g>
			<rect x="-106" y="343" class="st6" width="20" height="17"/>
		</g>
		<g>
			<path class="st6" d="M-88.9,369H-106v15h0.8C-99.5,379-94.1,375-88.9,369z"/>
		</g>
		<g>
			<rect x="-142" y="319" class="st6" width="21" height="15"/>
		</g>
		<g>
			<rect x="-142" y="369" class="st6" width="21" height="15"/>
		</g>
		<g>
			<rect x="-142" y="343" class="st6" width="21" height="17"/>
		</g>
		<g>
			<path class="st6" d="M-71,319v15h9.6c3-4,5.9-10,8.5-15H-71z"/>
		</g>
		<g>
			<path class="st6" d="M-71,343v5.2c1-1.4,1.9-2.2,2.9-5.2H-71z"/>
		</g>
		<g>
			<rect x="-106" y="319" class="st6" width="20" height="15"/>
		</g>
		<g>
			<path class="st6" d="M-161.9,409c-1.8,0-4.1-1.3-4.1-3.1V287.1c0-1.8,2.3-4.1,4.1-4.1h19.9v10.8c0,2.8,2.7,5,5.5,5s5.5-2.2,5.5-5
				V283h30v10.8c0,2.8,1.7,5,4.5,5s4.5-2.2,4.5-5V283h30v10.8c0,2.8,2.7,5,5.5,5s5.5-2.2,5.5-5V283h12.3c1-2,1.9-6,2.7-9h-15v-10.3
				c0-2.8-2.7-5-5.5-5s-5.5,2.2-5.5,5V274h-30v-10.3c0-2.8-1.7-5-4.5-5s-4.5,2.2-4.5,5V274h-30v-10.3c0-2.8-2.7-5-5.5-5
				s-5.5,2.2-5.5,5V274h-19.9c-7.4,0-14.1,5.7-14.1,13.1v118.8c0,6.3,5,11.4,11.1,12.9c7.5-2.8,14.5-5.7,21.6-9.7H-161.9z"/>
		</g>
	</g>
	<g>
		<path class="st1" d="M-290.1,397.2h-8.3c-1.5,0-2.7-1.2-2.7-2.7v-42.8c0-1.5,1.2-2.7,2.7-2.7h8.3c1.5,0,2.7,1.2,2.7,2.7v42.8
			C-287.3,395.9-288.6,397.2-290.1,397.2z"/>
	</g>
	<g>
		<path class="st1" d="M-318.3,377.2v-8.3c0-1.5,1.2-2.7,2.7-2.7h42.8c1.5,0,2.7,1.2,2.7,2.7v8.3c0,1.5-1.2,2.7-2.7,2.7h-42.8
			C-317.1,379.9-318.3,378.7-318.3,377.2z"/>
	</g>
	<g>
		
			<ellipse transform="matrix(0.7071 -0.7071 0.7071 0.7071 -282.6112 -249.0311)" class="st2" cx="-441.9" cy="216.6" rx="15.1" ry="15.1"/>
	</g>
	<g>
		<path class="st2" d="M-65.8,214.1L-65.8,214.1c-1.4,1.4-3.6,1.4-5,0l-3.7-3.7c-1.4-1.4-1.4-3.6,0-5h0c1.4-1.4,3.6-1.4,5,0l3.7,3.7
			C-64.4,210.4-64.4,212.7-65.8,214.1z"/>
	</g>
	<g>
		<path class="st2" d="M-65.6,221.1L-65.6,221.1c1.4,1.4,1.4,3.6,0,5l-3.7,3.7c-1.4,1.4-3.6,1.4-5,0h0c-1.4-1.4-1.4-3.6,0-5l3.7-3.7
			C-69.2,219.8-67,219.8-65.6,221.1z"/>
	</g>
	<g>
		<path class="st2" d="M-58.3,221.6L-58.3,221.6c1.4-1.4,3.6-1.4,5,0l3.7,3.7c1.4,1.4,1.4,3.6,0,5h0c-1.4,1.4-3.6,1.4-5,0l-3.7-3.7
			C-59.7,225.2-59.7,223-58.3,221.6z"/>
	</g>
	<g>
		<path class="st2" d="M-58.5,214.1L-58.5,214.1c-1.4-1.4-1.4-3.6,0-5l3.7-3.7c1.4-1.4,3.6-1.4,5,0h0c1.4,1.4,1.4,3.6,0,5l-3.7,3.7
			C-54.9,215.5-57.1,215.5-58.5,214.1z"/>
	</g>
	<g>
		<g>
			<path class="st3" d="M-214,318.9v2.1V318.9C-214,318.9-214,318.9-214,318.9z"/>
		</g>
		<g>
			<path class="st3" d="M-290.3,300.9c0,2.8,2.8,5,5.6,5c2.8,0,5.6-2.4,5.6-5.2v-91.9c0-6-5.1-17.8-18.4-17.8h-67.3
				c-2.8,0-4.3,2.9-4.3,5.7v91.7c0,2.8,1.5,5.5,4.3,5.5h67.3C-295.2,294-290.3,294.5-290.3,300.9z M-360,283v-83h62.6
				c6.5,0,8.4,7.9,8.4,9v75.8c-3-0.9-6-1.8-8.4-1.8H-360z"/>
		</g>
		<g>
			<path class="st3" d="M-231.3,274.4c6.2-9.6,22.9-35.9,26.2-47c0.7-2.4,0.7-6-1.4-8.9c-1.7-2.3-4.3-3.5-7.4-3.5h-53.7
				c-2.8,0-5.1,2.7-5.1,5.5s2.3,5.5,5.1,5.5h52.5c-4.3,13-26.5,45.9-26.7,46.2c-1.2,1.8-1.1,4,0.2,5.8c0.9,1.2,22.2,29,26.4,41
				h-83.4c-0.4,0-3.6-0.2-5.4-2c-1.1-1.1-1.7-2.9-1.7-5.1c0-2.8-2.3-5.1-5.1-5.1c-2.8,0-5.1,2.3-5.1,5.1c0,5.2,1.6,8.8,4.8,11.9
				c4.8,4.6,11.3,4.2,12.6,4.2h84.7c3.1,0,5.7-0.7,7.4-2.9c2.2-2.9,2.2-6.2,1.5-8.6C-208.4,305.6-223.9,284.4-231.3,274.4z
				 M-214,318.9C-214,318.9-214,318.9-214,318.9v2.1V318.9z"/>
		</g>
		<g>
			<path class="st3" d="M-382,190.5c-2.8,0-5,2.3-5,5.1v189.6c0,2.8,2.2,5.1,5,5.1s5-2.3,5-5.1V195.6
				C-377,192.8-379.2,190.5-382,190.5z"/>
		</g>
	</g>
	<g>
		<path class="st8" d="M-272.6,101.3l-6.5-10.6l-4.6,2.9c-2.4,1.5-5.3,2-8.2,1.3c-5.8-1.4-9.4-7.2-8.1-13c0.7-2.9,2.5-5.3,4.8-6.7
			l4.6-2.8l-6.5-10.6c-2.7-4.3-8.4-5.6-12.7-3l-85.4,53c-4.3,2.7-5.6,8.4-3,12.7l6.5,10.6l4.6-2.8c2.4-1.5,5.3-2,8.2-1.3
			c5.8,1.4,9.4,7.2,8.1,13c-0.7,2.9-2.5,5.3-4.8,6.7l-4.6,2.8l6.5,10.6c2.7,4.3,8.4,5.6,12.7,3l85.4-53
			C-271.3,111.3-270,105.6-272.6,101.3z"/>
	</g>
	<g>
		<path class="st1" d="M-302,118.4c-1.2,0-2.3-0.6-3-1.6l-22.6-33.5c-1.1-1.7-0.7-3.9,1-5c1.7-1.1,3.9-0.7,5,1l22.6,33.5
			c1.1,1.7,0.7,3.9-1,5C-300.6,118.2-301.3,118.4-302,118.4z"/>
	</g>
	<g>
		<circle class="st6" cx="-131.8" cy="151.2" r="4.2"/>
	</g>
	<g>
		<path class="st5" d="M-266.8,143h31c3,0,6.7,2.7,6.7,5.7v21.9c0,3-3,3.6-5,3.6v10.9l-18.2-9.2h-14.6c-3,0-4.2-4.2-4.2-7.2v-20.1
			C-271,145.7-269.8,143-266.8,143z"/>
	</g>
	<g>
		
			<ellipse transform="matrix(0.7071 -0.7071 0.7071 0.7071 -310.0979 -40.6327)" class="st2" cx="-204.1" cy="354" rx="8.3" ry="8.3"/>
	</g>
	<g>
		<circle class="st6" cx="-237.6" cy="92.2" r="8.3"/>
	</g>
	<g>
		<path class="st6" d="M-341.2,330.5L-341.2,330.5c-0.8,0.8-2.2,0.8-3.1,0l-2.3-2.3c-0.8-0.8-0.8-2.2,0-3.1l0,0
			c0.8-0.8,2.2-0.8,3.1,0l2.3,2.3C-340.3,328.2-340.3,329.6-341.2,330.5z"/>
	</g>
	<g>
		<path class="st6" d="M-341.1,334.8L-341.1,334.8c0.8,0.8,0.8,2.2,0,3.1l-2.3,2.3c-0.8,0.8-2.2,0.8-3.1,0l0,0
			c-0.8-0.8-0.8-2.2,0-3.1l2.3-2.3C-343.3,333.9-341.9,333.9-341.1,334.8z"/>
	</g>
	<g>
		<path class="st6" d="M-336.6,335.1L-336.6,335.1c0.8-0.8,2.2-0.8,3.1,0l2.3,2.3c0.8,0.8,0.8,2.2,0,3.1l0,0c-0.8,0.8-2.2,0.8-3.1,0
			l-2.3-2.3C-337.4,337.3-337.4,335.9-336.6,335.1z"/>
	</g>
	<g>
		<path class="st6" d="M-336.7,330.5L-336.7,330.5c-0.8-0.8-0.8-2.2,0-3.1l2.3-2.3c0.8-0.8,2.2-0.8,3.1,0l0,0c0.8,0.8,0.8,2.2,0,3.1
			l-2.3,2.3C-334.5,331.3-335.9,331.3-336.7,330.5z"/>
	</g>
	<g>
		<g>
			<circle class="st3" cx="-148.1" cy="185.9" r="7"/>
		</g>
		<g>
			<path class="st3" d="M-158,60h20.1c2.8,0,5-1.7,5-4.5s-2.3-4.5-5-4.5H-158c-2.8,0-5,1.7-5,4.5S-160.8,60-158,60z"/>
		</g>
		<g>
			<path class="st3" d="M-103.7,36h-90.3c-6.7,0-10.9,1.9-10.9,6.9v155.6c0,5.5,5.4,10.6,10.9,10.6h90.3c5.5,0,9.7-5,9.7-10.6V42.9
				C-94,37.9-97.1,36-103.7,36z M-104,199h-90V45h90V199z"/>
		</g>
		<g>
			<path class="st3" d="M-184,176h70.3c2.8,0,4.8-2.4,4.8-5.1V71.2c0-2.4-1.7-5.2-4.8-5.2H-184c-3.1,0-6,2.8-6,5.2v99.7
				C-190,173.6-186.8,176-184,176z M-119,75v91h-60V75H-119z"/>
		</g>
	</g>
	<g>
		<path class="st1" d="M-160,229h-21.8c-2.1,0-5.2,1.2-5.2,3.3v15.4c0,2.1,3,2.6,6,2.6v7.7l10.7-7h10.3c2.1,0,3-2.5,3-4.6v-14.1
			C-157,230.2-157.9,229-160,229z"/>
	</g>
	<g>
		<path class="st6" d="M-165,157c-2.1,0-4-1.7-4-3.8V88c0-2.1,1.9-3.8,4-3.8s4,1.7,4,3.8v65.2C-161,155.3-162.9,157-165,157z"/>
	</g>
	<g>
		<path class="st1" d="M-347.1,146c-1.2,0-2.3-0.6-3-1.6l-22.6-33.5c-1.1-1.7-0.7-3.9,1-5c1.7-1.1,3.9-0.7,5,1l22.6,33.5
			c1.1,1.7,0.7,3.9-1,5C-345.7,145.8-346.4,146-347.1,146z"/>
	</g>
	<g>
		<path class="st7" d="M-245.5,396.8c-2,0-3.6-1.6-3.6-3.5c0-2,1.5-3.6,3.5-3.7l35.3-0.7c0,0,0,0,0.1,0c2,0,3.6,1.6,3.6,3.5
			c0,2-1.5,3.6-3.5,3.7L-245.5,396.8C-245.5,396.8-245.5,396.8-245.5,396.8z"/>
	</g>
	<g>
		<path class="st7" d="M-219.6,43.7h-50.3c-2,0-3.6-1.6-3.6-3.6c0-2,1.6-3.6,3.6-3.6h50.3c2,0,3.6,1.6,3.6,3.6
			C-216,42-217.6,43.7-219.6,43.7z"/>
	</g>
	<g>
		<path class="st7" d="M-254.9,59.9h-13.9c-2,0-3.6-1.6-3.6-3.6c0-2,1.6-3.6,3.6-3.6h13.9c2,0,3.6,1.6,3.6,3.6
			C-251.3,58.2-252.9,59.9-254.9,59.9z"/>
	</g>
	<g>
		<path class="st7" d="M-198.1,410.3h-8.8c-2,0-3.6-1.6-3.6-3.6c0-2,1.6-3.6,3.6-3.6h8.8c2,0,3.6,1.6,3.6,3.6
			C-194.5,408.7-196.1,410.3-198.1,410.3z"/>
	</g>
	<g>
		<path class="st7" d="M-235.8,382.7h-8.8c-2,0-3.6-1.6-3.6-3.6s1.6-3.6,3.6-3.6h8.8c2,0,3.6,1.6,3.6,3.6S-233.8,382.7-235.8,382.7z
			"/>
	</g>
</g>
<g>
	<circle class="st0" cx="252.4" cy="253.3" r="207.5"/>
</g>
<g>
	<path class="st1" d="M424,261.9h-8.3c-1.5,0-2.7-1.2-2.7-2.7v-42.8c0-1.5,1.2-2.7,2.7-2.7h8.3c1.5,0,2.7,1.2,2.7,2.7v42.8
		C426.7,260.6,425.5,261.9,424,261.9z"/>
</g>
<g>
	<path class="st1" d="M395.7,241.9v-8.3c0-1.5,1.2-2.7,2.7-2.7h42.8c1.5,0,2.7,1.2,2.7,2.7v8.3c0,1.5-1.2,2.7-2.7,2.7h-42.8
		C397,244.6,395.7,243.4,395.7,241.9z"/>
</g>
<g>
	
		<ellipse transform="matrix(0.7071 -0.7071 0.7071 0.7071 -112.8668 411.1107)" class="st2" cx="439.8" cy="341.8" rx="13" ry="13"/>
</g>
<g>
	<path class="st1" d="M223.3,426.8h-4.3c-0.8,0-1.4-0.6-1.4-1.4v-22c0-0.8,0.6-1.4,1.4-1.4h4.3c0.8,0,1.4,0.6,1.4,1.4v22
		C224.7,426.2,224.1,426.8,223.3,426.8z"/>
</g>
<g>
	<path class="st1" d="M208.8,416.5v-4.3c0-0.8,0.6-1.4,1.4-1.4h22c0.8,0,1.4,0.6,1.4,1.4v4.3c0,0.8-0.6,1.4-1.4,1.4h-22
		C209.4,417.9,208.8,417.3,208.8,416.5z"/>
</g>
<g>
	<path class="st2" d="M210.2,267.5L210.2,267.5c-1.4,1.4-3.6,1.4-5,0l-3.7-3.7c-1.4-1.4-1.4-3.6,0-5l0,0c1.4-1.4,3.6-1.4,5,0
		l3.7,3.7C211.6,263.9,211.6,266.2,210.2,267.5z"/>
</g>
<g>
	<path class="st2" d="M210.4,274.6L210.4,274.6c1.4,1.4,1.4,3.6,0,5l-3.7,3.7c-1.4,1.4-3.6,1.4-5,0v0c-1.4-1.4-1.4-3.6,0-5l3.7-3.7
		C206.8,273.2,209,273.2,210.4,274.6z"/>
</g>
<g>
	<path class="st2" d="M218,275.9L218,275.9c1.4-1.4,3.6-1.4,5,0l3.7,3.7c1.4,1.4,1.4,3.6,0,5l0,0c-1.4,1.4-3.6,1.4-5,0l-3.7-3.7
		C216.6,279.6,216.6,277.3,218,275.9z"/>
</g>
<g>
	<path class="st2" d="M217.5,267.5L217.5,267.5c-1.4-1.4-1.4-3.6,0-5l3.7-3.7c1.4-1.4,3.6-1.4,5,0l0,0c1.4,1.4,1.4,3.6,0,5l-3.7,3.7
		C221.1,268.9,218.9,268.9,217.5,267.5z"/>
</g>
<g>
	
		<ellipse transform="matrix(0.7071 -0.7071 0.7071 0.7071 -40.5833 313.3817)" class="st2" cx="358" cy="205.7" rx="11.3" ry="11.3"/>
</g>
<g>
	
		<ellipse transform="matrix(0.7071 -0.7071 0.7071 0.7071 -229.4624 193.1035)" class="st2" cx="118.4" cy="373.5" rx="8.3" ry="8.3"/>
</g>
<g>
	<circle class="st6" cx="239.4" cy="67.5" r="4.2"/>
</g>
<g>
	<path class="st6" d="M243.8,147.6L243.8,147.6c-0.7,0.7-2,0.7-2.7,0l-2-2c-0.7-0.7-0.7-2,0-2.7l0,0c0.7-0.7,2-0.7,2.7,0l2,2
		C244.6,145.6,244.6,146.9,243.8,147.6z"/>
</g>
<g>
	<path class="st6" d="M243.9,151.4L243.9,151.4c0.7,0.7,0.7,2,0,2.7l-2,2c-0.7,0.7-2,0.7-2.7,0l0,0c-0.7-0.7-0.7-2,0-2.7l2-2
		C242,150.7,243.2,150.7,243.9,151.4z"/>
</g>
<g>
	<path class="st6" d="M247.9,151.7L247.9,151.7c0.7-0.7,2-0.7,2.7,0l2,2c0.7,0.7,0.7,2,0,2.7l0,0c-0.7,0.7-2,0.7-2.7,0l-2-2
		C247.1,153.6,247.1,152.4,247.9,151.7z"/>
</g>
<g>
	<path class="st6" d="M247.8,147.6L247.8,147.6c-0.7-0.7-0.7-2,0-2.7l2-2c0.7-0.7,2-0.7,2.7,0h0c0.7,0.7,0.7,2,0,2.7l-2,2
		C249.7,148.4,248.5,148.4,247.8,147.6z"/>
</g>
<g>
	<g>
		<path class="st5" d="M358.2,93.1c3.3,0,6.6-1.3,9.1-3.8c5-5,5-13.2,0-18.2c-5-5-13.2-5-18.2,0c-5,5-5,13.2,0,18.2
			C351.6,91.8,354.9,93.1,358.2,93.1z M354.2,76.2c1.1-1.1,2.5-1.6,4-1.6c1.4,0,2.9,0.6,4,1.6c2.2,2.2,2.2,5.8,0,8
			c-2.2,2.2-5.8,2.2-8,0C352,82,352,78.4,354.2,76.2z"/>
	</g>
	<g>
		<path class="st5" d="M417.1,151.3c0-3.4-1.3-6.7-3.8-9.1c-2-2-4.6-3-7.4-3.4c-4.7-8.4-13.6-13.8-23.9-13.8h-41.7
			c-0.6-3-1.7-4.4-3.3-6c-2.4-2.4-5.7-3.9-9.1-3.9c-3.4,0-6.7,1.5-9.1,3.9c-1.6,1.6-2.7,2.9-3.3,5.9h-41.5c-6.6,0-12.4-3-16.1-7.9
			c1.1-0.6,2.1-2.1,3-2.1c0,0,0,0,0,0c2.4-3,3.8-6,3.8-9.4s-1.3-6.8-3.8-9.2c-1.1-1.1-2.5-2.3-3.9-2.9c3.6-5.5,9.8-9.4,16.9-9.4
			h57.6c0.8,5,3.3,10.8,7.5,15c5.2,5.2,12.1,7.9,18.9,7.9c6.9,0,13.7-2.6,19-7.8c10.4-10.4,10.4-27.4,0-37.9
			c-5.1-5.1-11.8-7.8-19-7.8c-7.2,0-13.9,2.9-18.9,7.9c-4.4,4.4-6.9,9.7-7.6,15.7h-57.5c-10.9,0-20.4,6.5-24.8,15.8
			c-2.4,0.5-4.7,1.7-6.5,3.5c-2.4,2.4-3.8,5.6-3.8,9.1c0,3.4,1.3,6.7,3.8,9.1c2,2,4.6,3.7,7.4,4.1c4.7,8.4,13.6,14.5,23.9,14.5h41.8
			c0.6,1,1.6,3.1,3,4.5c2.4,2.4,5.7,3.5,9.1,3.5c3.4,0,6.7-1,9.1-3.4c1.4-1.4,2.4-3.6,3-4.6h42c6.6,0,12.4,2.5,16.1,7.4
			c-1.1,0.6-2.1,0.6-3,1.6h0c-5,6-5,13.3,0,18.3c1.1,1.1,2.5,1.9,3.9,2.6c-3.6,5.5-9.8,9.1-16.9,9.1h-57.6c-0.7-5-3.2-11.1-7.6-15.5
			c-5.1-5.1-11.8-7.8-19-7.8c-7.2,0-13.9,2.8-18.9,7.9c-10.4,10.4-10.4,27.5,0,37.9c5.2,5.2,12.1,7.8,18.9,7.8
			c6.9,0,13.7-2.5,19-7.7c4.2-4.2,6.6-8.6,7.5-14.6h57.7c10.9,0,20.4-6.6,24.8-16c2.4-0.5,4.7-1.8,6.5-3.6
			C415.8,158.1,417.1,154.8,417.1,151.3z M344.3,66.4c3.7-3.7,8.6-5.7,13.8-5.7c5.2,0,10.1,2,13.8,5.7c7.6,7.6,7.6,20,0,27.7
			c-7.6,7.6-20,7.6-27.7,0C336.7,86.4,336.7,74,344.3,66.4z M246.3,105.3c0-1.5,0.6-2.9,1.7-4c1.1-1.1,2.5-1.7,4-1.7
			c1.5,0,2.9,0.6,4,1.7c1.1,1.1,1.7,2.8,1.7,4.3c0,1.5-0.6,2.3-1.7,4.3h0c-2.1,1-5.8,1.8-8-0.3C246.9,108.6,246.3,106.8,246.3,105.3
			z M332,131.9c-2.1,2.1-5.8,2.1-8,0c-1.1-1.1-1.7-2.5-1.7-4c0-1.5,0.6-2.9,1.7-4c1.1-1.1,2.5-1.7,4-1.7c1.5,0,2.9,0.6,4,1.7
			c1.1,1.1,1.7,2.5,1.7,4C333.6,129.4,333.1,130.8,332,131.9z M311.8,189.4c-7.6,7.6-20,7.6-27.7,0c-7.6-7.6-7.6-20,0-27.7
			c3.7-3.7,8.6-5.7,13.8-5.7c5.2,0,10.1,2,13.8,5.7C319.4,169.4,319.4,181.8,311.8,189.4z M408.3,155.3c-2.1,2.1-5.8,2.1-8,0
			c-2.2-2.2-2.2-5.8,0-8c2.1-2.1,5.8-2.1,8,0c1.1,1.1,1.7,2.5,1.7,4S409.3,154.2,408.3,155.3z"/>
	</g>
	<g>
		<path class="st5" d="M288.8,166.5c-5,5-5,13.2,0,18.2c2.5,2.5,5.8,3.8,9.1,3.8c3.3,0,6.6-1.3,9.1-3.8c5-5,5-13.2,0-18.2
			C302,161.5,293.9,161.5,288.8,166.5z M301.9,179.6c-2.2,2.2-5.8,2.2-8,0c-2.2-2.2-2.2-5.8,0-8c1.1-1.1,2.5-1.6,4-1.6
			c1.4,0,2.9,0.6,4,1.6C304.1,173.8,304.1,177.4,301.9,179.6z"/>
	</g>
</g>
<g>
	<g>
		<path class="st3" d="M86.5,117.5c-2.8,0-4.5,2.3-4.5,5.1v152c0,2.8,1.7,5.1,4.5,5.1s4.5-2.3,4.5-5.1v-152
			C91,119.8,89.3,117.5,86.5,117.5z"/>
	</g>
	<g>
		<path class="st3" d="M110.2,164h95.3c5.5,0,8.5-3.4,8.5-8.9v-22.6c0-5.5-2.9-10.5-8.5-10.5h-95.3c-5,0-8.2,3.8-8.2,10.5v22.6
			C102,161.7,105.2,164,110.2,164z M112,133h92v22h-92V133z"/>
	</g>
	<g>
		<path class="st3" d="M165.4,232h-55.2c-5,0-8.2,5.1-8.2,11.7v22.6c0,6.7,3.2,9.7,8.2,9.7h55.2c5.5,0,8.6-4.1,8.6-9.7v-22.6
			C174,238.2,170.9,232,165.4,232z M165,265h-53v-22h53V265z"/>
	</g>
	<g>
		<path class="st3" d="M245.7,178H110.2c-5,0-8.2,3-8.2,9.7v22.6c0,6.7,3.2,9.7,8.2,9.7h135.5c5.5,0,8.3-4.2,8.3-9.7v-22.6
			C254,182.2,251.2,178,245.7,178z M245,210H112v-23h133V210z"/>
	</g>
</g>
<g>
	<path class="st6" d="M235,201.1H120.8c-2.1,0-3.8-1.7-3.8-3.8s1.7-3.8,3.8-3.8H235c2.1,0,3.8,1.7,3.8,3.8S237.1,201.1,235,201.1z"
		/>
</g>
<g>
	<path class="st6" d="M154.7,256.9C154.7,256.9,154.6,256.9,154.7,256.9l-33.9-0.6c-2.1,0-3.7-1.8-3.7-3.8c0-2.1,1.7-3.7,3.8-3.7
		c0,0,0,0,0.1,0l33.9,0.6c2.1,0,3.7,1.8,3.7,3.8C158.4,255.3,156.7,256.9,154.7,256.9z"/>
</g>
<g>
	<path class="st6" d="M190.2,146.1C190.2,146.1,190.2,146.1,190.2,146.1l-69.3-0.2c-2.1,0-3.8-1.7-3.8-3.8c0-2.1,1.7-3.8,3.8-3.8
		l69.3,0.2c2.1,0,3.8,1.7,3.8,3.8C193.9,144.4,192.2,146.1,190.2,146.1z"/>
</g>
<g>
	
		<ellipse transform="matrix(0.367 -0.9302 0.9302 0.367 -206.188 375.0922)" class="st6" cx="172.5" cy="339.1" rx="38.9" ry="38.9"/>
</g>
<g>
	<path class="st4" d="M172.5,309.7c-14.5,0-30.2,11.5-30.2,30.2c0,9.2,3.7,16.9,10.7,22.8c0.1,0.1,0.2,0.2,0.3,0.2
		c5.2,5.7,5.5,9.2,5.5,11.7c0,1,0,1.3,0,1.4l0,0.6c0,1.2-0.1,3.3,2.5,4.1l22.2,4.9c0.1,0,0.2,0,0.3,0c0.6,0,1.2-0.4,1.3-1.1
		c0.2-0.7-0.3-1.5-1-1.6l-22.1-4.9c-0.4-0.1-0.5-0.1-0.4-1.4l0-0.5c0,0,0-0.2,0-1.6c-0.1-3.5-0.8-7.7-6.3-13.6
		c-0.1-0.1-0.2-0.2-0.4-0.3c-6.5-5.5-9.7-12.5-9.7-20.8c0-16.9,14.2-27.4,27.4-27.4c13.5,0,27.4,10.3,27.4,27.4
		c0,10.9-5.3,16.9-9.7,20.7c-0.2,0.1-0.3,0.2-0.4,0.3c-5.6,6-6.3,7.7-6.4,11.2c0,0.1,0,0.2,0,0.3l0,0.1c0,0.2,0,0.3,0,0.4
		c-0.1,0-0.3,0-0.3,0l-11.5-2.7c-0.7-0.2-1.5,0.3-1.6,1c-0.2,0.7,0.3,1.5,1,1.7l11.4,2.7c0.2,0.1,1.5,0.5,2.7-0.3
		c0.5-0.4,1.1-1,1.2-2.4l0-0.1c0-0.1,0-0.2,0-0.3c0,0,0,0,0-0.1l0-0.1c0-2.5,0.3-3.6,5.5-9.2c0,0,0.1,0,0.1-0.1
		c7.3-6.1,10.9-13.7,10.9-23C202.7,321,187.4,309.7,172.5,309.7z M183.5,395.7c0.6,0,1.2-0.4,1.3-1.1c0.2-0.7-0.3-1.5-1-1.6l-21.9-5
		c-0.7-0.2-1.5,0.3-1.6,1c-0.2,0.7,0.3,1.5,1,1.6l21.9,5C183.3,395.7,183.4,395.7,183.5,395.7z M163.2,398.4c-0.7-0.2-1.5,0.3-1.6,1
		c-0.2,0.7,0.3,1.5,1,1.6l17.8,4c0.1,0,0.2,0,0.3,0c0.6,0,1.2-0.4,1.3-1.1c0.2-0.7-0.3-1.5-1-1.6L163.2,398.4z"/>
	<path class="st4" d="M180.8,407.3c-0.3,0-0.5,0-0.8-0.1l-17.8-4c-0.9-0.2-1.7-0.8-2.3-1.6c-0.5-0.8-0.7-1.8-0.5-2.7
		c0.4-2,2.4-3.2,4.3-2.7h0l17.8,4c0.9,0.2,1.7,0.8,2.3,1.6c0.5,0.8,0.7,1.8,0.5,2.7C183.9,406.2,182.5,407.3,180.8,407.3z
		 M180.6,404.6L180.6,404.6L180.6,404.6z M162.7,400.6L162.7,400.6L162.7,400.6z M163.1,398.8L163.1,398.8L163.1,398.8z M183.5,398
		c-0.3,0-0.6,0-0.8-0.1l-21.9-5c-0.9-0.2-1.8-0.8-2.3-1.6c-0.5-0.8-0.7-1.8-0.5-2.7c0.4-1.9,2.4-3.2,4.3-2.7l22,5
		c1,0.2,1.8,0.8,2.3,1.6c0.5,0.8,0.7,1.8,0.5,2.7C186.7,396.8,185.2,398,183.5,398z M183.8,388c-0.3,0-0.5,0-0.8-0.1l-22.2-4.9
		c-4.4-1.3-4.3-5.1-4.2-6.4l0-0.5c0-0.2,0-0.5,0-1.4c0-1.9-0.1-4.9-4.8-10.1c-0.1-0.1-0.2-0.2-0.3-0.3c-7.4-6.3-11.4-14.7-11.4-24.4
		c0-20,16.8-32.4,32.4-32.4c15.9,0,32.4,12.1,32.4,32.4c0,10-3.8,18.1-11.7,24.7c-4.7,5.2-4.7,5.8-4.8,7.6l0,0.5
		c-0.1,2-0.9,3.4-2.2,4.3c-1.9,1.3-3.9,0.8-4.6,0.6l-11.3-2.6c-2-0.5-3.2-2.4-2.7-4.4c0.5-1.9,2.4-3.1,4.3-2.7l9.3,2.2
		c0.5-3.2,2.1-5.6,6.8-10.7c0.2-0.2,0.5-0.5,0.8-0.6c4.1-3.6,8.7-9,8.7-18.9c0-15.8-12.8-25.2-25.2-25.2c-12.1,0-25.2,9.6-25.2,25.2
		c0,7.5,3,13.9,8.8,18.9c0.3,0.2,0.6,0.4,0.8,0.7c5.9,6.4,6.8,11.2,6.8,15c0,0.9,0,1.4,0,1.6l20.7,4.6c0.9,0.2,1.8,0.8,2.3,1.6
		c0.5,0.8,0.7,1.8,0.5,2.7C186.9,386.8,185.4,388,183.8,388z"/>
</g>
<g>
	<path class="st7" d="M221.4,92.7h-50.3c-2,0-3.6-1.6-3.6-3.6c0-2,1.6-3.6,3.6-3.6h50.3c2,0,3.6,1.6,3.6,3.6
		C225,91.1,223.4,92.7,221.4,92.7z"/>
</g>
<g>
	<path class="st7" d="M186.1,108.9h-13.9c-2,0-3.6-1.6-3.6-3.6s1.6-3.6,3.6-3.6h13.9c2,0,3.6,1.6,3.6,3.6S188.1,108.9,186.1,108.9z"
		/>
</g>
<g>
	<path class="st7" d="M127.4,302.9C127.4,302.9,127.4,302.9,127.4,302.9L92,302.2c-2,0-3.6-1.7-3.5-3.7c0-2,1.6-3.5,3.6-3.5
		c0,0,0,0,0.1,0l35.3,0.7c2,0,3.6,1.7,3.5,3.7C131,301.3,129.4,302.9,127.4,302.9z"/>
</g>
<g>
	<path class="st7" d="M88.8,316.4h-8.8c-2,0-3.6-1.6-3.6-3.6s1.6-3.6,3.6-3.6h8.8c2,0,3.6,1.6,3.6,3.6S90.8,316.4,88.8,316.4z"/>
</g>
<g>
	<path class="st7" d="M109.9,328.9h-8.8c-2,0-3.6-1.6-3.6-3.6c0-2,1.6-3.6,3.6-3.6h8.8c2,0,3.6,1.6,3.6,3.6
		C113.5,327.3,111.9,328.9,109.9,328.9z"/>
</g>
<g>
	<circle class="st6" cx="364" cy="277.6" r="4.2"/>
</g>
<g>
	<path class="st9" d="M354.7,287.7l31.7,0L353,250.2v34.6C353,286,354.2,287.5,354.7,287.7z"/>
	<path class="st9" d="M344,284.8V243h-77.4c-0.8,0-2.6,0.3-2.6,1v162.5c0,0.8,1.8,1.4,2.6,1.4h124.3c0.8,0,1.1-0.7,1.1-1.4V297
		h-37.3C348.6,297,344,290.5,344,284.8z M288.3,303h36.2c2.6,0,4.6,1.9,4.6,4.5s-2.1,4.5-4.6,4.5h-36.2c-2.6,0-4.6-1.9-4.6-4.5
		S285.7,303,288.3,303z M366.8,386h-78.5c-2.6,0-4.6-2.9-4.6-5.5s2.1-5.5,4.6-5.5h78.5c2.6,0,4.6,2.9,4.6,5.5S369.3,386,366.8,386z
		 M366.8,360h-78.5c-2.6,0-4.6-1.9-4.6-4.5s2.1-4.5,4.6-4.5h78.5c2.6,0,4.6,1.9,4.6,4.5S369.3,360,366.8,360z M371.4,330.5
		c0,2.6-2.1,5.5-4.6,5.5h-78.5c-2.6,0-4.6-2.9-4.6-5.5s2.1-5.5,4.6-5.5h78.5C369.3,325,371.4,327.9,371.4,330.5z"/>
	<path class="st3" d="M366.8,375h-78.5c-2.6,0-4.6,2.9-4.6,5.5s2.1,5.5,4.6,5.5h78.5c2.6,0,4.6-2.9,4.6-5.5S369.3,375,366.8,375z"/>
	<path class="st3" d="M402.8,291.9l-1.9-2.2l-0.1-0.2l-23.9-26.8L350,232h-1.3h-7.2h-77.4c-5.9,0-10.1,6.1-10.1,12v162.5
		c0,5.9,4.2,12.4,10.1,12.4h126.8c5.9,0,12.1-6.5,12.1-12.4V304.9C403,304.7,402.8,292,402.8,291.9z M386.4,287.7l-31.7,0
		c-0.5-0.2-1.7-1.7-1.7-2.9v-34.6L386.4,287.7z M392,406.6c0,0.8-0.3,1.4-1.1,1.4H266.6c-0.8,0-2.6-0.6-2.6-1.4V244
		c0-0.8,1.9-1,2.6-1H344v41.8c0,5.8,4.6,12.2,10.7,12.2H392V406.6z"/>
	<path class="st3" d="M366.8,351h-78.5c-2.6,0-4.6,1.9-4.6,4.5s2.1,4.5,4.6,4.5h78.5c2.6,0,4.6-1.9,4.6-4.5S369.3,351,366.8,351z"/>
	<path class="st3" d="M288.3,312h36.2c2.6,0,4.6-1.9,4.6-4.5s-2.1-4.5-4.6-4.5h-36.2c-2.6,0-4.6,1.9-4.6,4.5S285.7,312,288.3,312z"
		/>
	<path class="st3" d="M283.6,330.5c0,2.6,2.1,5.5,4.6,5.5h78.5c2.6,0,4.6-2.9,4.6-5.5s-2.1-5.5-4.6-5.5h-78.5
		C285.7,325,283.6,327.9,283.6,330.5z"/>
</g>
</svg>
